<svg width="176" height="99" viewBox="0 0 176 99" fill="none" xmlns="http://www.w3.org/2000/svg">
<path d="M86.463 18.026C86.645 18.026 86.658 18.013 86.658 17.831C86.658 17.662 86.645 17.636 86.437 17.597C86.008 17.506 85.917 17.402 83.876 14.516L83.291 13.697C83.252 13.619 83.2 13.554 83.148 13.489C85.449 10.889 86.073 10.265 86.398 10.213C86.606 10.135 86.632 10.109 86.632 9.979C86.632 9.771 86.606 9.745 86.463 9.745H86.424C85.982 9.758 85.436 9.771 85.124 9.771L83.954 9.758C83.759 9.758 83.746 9.771 83.746 9.94C83.746 10.148 83.759 10.148 83.954 10.174C84.448 10.2 84.643 10.304 84.643 10.538C84.643 10.811 84.032 11.656 82.81 13.047C81.263 10.811 81.224 10.746 81.224 10.499C81.224 10.304 81.419 10.187 81.809 10.161C82.095 10.135 82.095 10.135 82.095 9.94C82.095 9.771 82.069 9.745 81.939 9.745H81.874C81.354 9.758 81.042 9.758 80.275 9.758L79.261 9.745C78.819 9.732 78.819 9.732 78.767 9.732C78.611 9.732 78.598 9.745 78.598 9.888C78.598 10.109 78.598 10.109 78.832 10.161C79.209 10.226 79.352 10.395 81.874 13.97C79.131 17.116 78.754 17.506 78.39 17.558C78.156 17.61 78.156 17.61 78.156 17.779C78.156 18.013 78.156 18.013 78.377 18.013C78.39 18.013 78.572 18.013 78.793 18L79.677 17.987C79.937 17.987 80.873 18 81.107 18.013H81.172C81.341 18.013 81.354 18 81.354 17.766C81.354 17.649 81.328 17.61 81.237 17.61C80.587 17.558 80.353 17.441 80.353 17.142C80.353 16.856 80.457 16.661 81.068 15.868C81.874 14.841 81.874 14.841 82.212 14.425C83.837 16.804 83.98 17.038 83.98 17.285C83.98 17.493 83.772 17.597 83.278 17.636C83.096 17.649 83.07 17.675 83.07 17.831C83.07 18.026 83.083 18.039 83.356 18.039C83.473 18.039 83.629 18.039 83.85 18.026C84.669 18.013 84.669 18.013 85.241 18.013C85.618 18.013 85.904 18.013 86.203 18.026H86.463ZM91.2287 18C91.6447 18.026 91.6447 18.026 91.6577 18.026C91.8007 18.026 91.8267 17.987 91.8267 17.792C91.8267 17.636 91.8007 17.623 91.6187 17.61C91.0077 17.558 90.8907 17.506 90.8127 17.246C90.7607 17.077 90.7477 16.518 90.7477 15.218C90.7477 13.866 90.7737 12.969 90.8257 12.553C90.8387 12.501 90.8387 12.449 90.8387 12.423C90.8387 12.345 90.7867 12.306 90.7087 12.306C90.5137 12.306 90.1237 12.449 88.9927 12.93L88.7717 13.021C88.6677 13.06 88.6417 13.099 88.6417 13.203C88.6417 13.398 88.6547 13.411 88.8367 13.424C89.4737 13.515 89.4997 13.58 89.4997 15.049C89.4997 17.324 89.4477 17.493 88.7327 17.61C88.5117 17.636 88.4987 17.649 88.4987 17.818C88.4987 18 88.5117 18.013 88.6417 18.013H88.7197C89.3047 18 89.7077 17.987 90.0977 17.987L91.2287 18ZM90.2667 9.238C89.8897 9.238 89.4867 9.641 89.4867 10.018C89.4867 10.369 89.8637 10.746 90.2277 10.746C90.6047 10.746 90.9947 10.356 90.9947 9.979C90.9947 9.628 90.6047 9.238 90.2667 9.238ZM99.7424 16.986L99.6904 16.96C99.3914 17.142 99.0144 17.259 98.7804 17.259C98.4554 17.259 98.3384 17.077 98.3384 16.544C98.3384 16.414 98.3384 16.219 98.3514 16.024C98.4034 14.217 98.4034 14.139 98.4034 13.866C98.4034 12.917 97.8834 12.397 96.9214 12.397C96.1154 12.397 95.3484 12.657 94.7374 13.138C94.3604 13.437 94.0874 13.814 94.0874 14.035C94.0874 14.139 94.1654 14.217 94.2824 14.217C94.4254 14.217 94.8674 14.126 95.1014 14.061C95.2834 13.996 95.3484 13.944 95.3484 13.814C95.3484 13.762 95.3484 13.71 95.3354 13.658C95.3224 13.593 95.3224 13.541 95.3224 13.515C95.3224 13.333 95.6864 13.216 96.2064 13.216C96.7524 13.216 97.0514 13.424 97.1034 13.853C97.1424 14.087 97.1424 14.425 97.1424 15.153C96.3494 15.231 95.5954 15.374 95.0364 15.543C94.0614 15.842 93.8664 16.05 93.8664 16.804C93.8664 17.675 94.2954 18.13 95.0754 18.13C95.6214 18.13 96.2194 17.961 97.1164 17.558C97.1944 17.948 97.4414 18.143 97.8314 18.143C98.2604 18.143 98.9494 17.922 99.5994 17.571C99.7294 17.506 99.7424 17.467 99.7424 17.285V16.986ZM96.7264 15.608C97.0254 15.608 97.1164 15.712 97.1164 16.05C97.1164 16.843 97.0904 17.012 96.9734 17.103C96.7654 17.233 96.2974 17.35 95.9204 17.35C95.3744 17.35 95.1664 17.103 95.1664 16.492C95.1664 16.193 95.2314 16.102 95.5434 15.946C95.9074 15.751 96.4274 15.608 96.7264 15.608ZM104.714 12.397C102.738 12.397 101.425 13.58 101.425 15.348C101.425 17.012 102.595 18.143 104.285 18.143C106.17 18.143 107.561 16.882 107.561 15.179C107.561 13.567 106.365 12.397 104.714 12.397ZM104.246 12.956C105.338 12.956 106.17 14.126 106.17 15.673C106.17 16.843 105.598 17.584 104.701 17.584C103.622 17.584 102.816 16.427 102.816 14.906C102.816 13.723 103.375 12.956 104.246 12.956ZM110.014 18.013C110.729 18 111.184 17.987 111.379 17.987C111.665 17.987 112.016 17.987 112.211 18C112.432 18.013 112.627 18.013 112.679 18.013C112.887 18.013 112.9 17.987 112.9 17.766C112.9 17.623 112.874 17.61 112.653 17.597C112.159 17.558 112.042 17.48 112.003 17.155C111.964 16.96 111.964 16.843 111.964 15.101C111.951 13.853 111.951 13.853 112.029 13.788C112.237 13.593 113.004 13.346 113.394 13.346C113.836 13.346 114.161 13.515 114.304 13.814C114.447 14.126 114.486 14.555 114.486 15.634C114.486 17.311 114.421 17.493 113.849 17.597C113.654 17.636 113.641 17.649 113.641 17.818C113.641 17.974 113.667 18.013 113.771 18.013H113.823C114.135 18 114.642 17.987 115.136 17.987C115.487 17.987 115.682 17.987 116.124 18C116.501 18.013 116.501 18.013 116.54 18.013C116.657 18.013 116.683 17.974 116.683 17.805C116.683 17.636 116.67 17.61 116.423 17.61C115.942 17.584 115.825 17.493 115.773 17.116C115.747 16.973 115.734 15.803 115.734 14.204C115.734 13.71 115.734 13.71 115.851 13.645C116.241 13.424 116.618 13.32 117.021 13.32C117.541 13.32 117.905 13.528 118.087 13.944C118.217 14.23 118.256 14.581 118.256 15.647C118.256 17.311 118.191 17.493 117.567 17.623C117.45 17.649 117.424 17.688 117.424 17.818C117.424 18 117.45 18.026 117.567 18.026H117.632C118.23 18 118.659 17.987 118.906 17.987L120.349 18C120.505 18 120.518 17.987 120.518 17.805C120.518 17.61 120.505 17.597 120.31 17.597C119.543 17.584 119.517 17.532 119.517 16.258V15.595C119.53 15.296 119.53 14.685 119.53 14.49C119.53 13.632 119.426 13.242 119.114 12.904C118.828 12.605 118.386 12.423 117.918 12.423C117.32 12.423 116.605 12.683 115.604 13.294C115.37 12.722 114.915 12.423 114.252 12.423C113.641 12.423 113.173 12.618 111.964 13.359C111.977 13.021 111.99 12.735 112.016 12.553C112.029 12.514 112.029 12.475 112.029 12.436C112.029 12.345 111.964 12.319 111.782 12.319C111.652 12.319 110.768 12.709 110.001 13.112C109.858 13.19 109.845 13.203 109.845 13.372C109.845 13.502 109.871 13.541 109.988 13.541C110.638 13.541 110.69 13.619 110.69 14.581C110.69 17.48 110.69 17.48 110.079 17.584C109.845 17.623 109.845 17.623 109.845 17.805C109.845 17.987 109.858 18.013 109.975 18.013H110.014ZM128.411 16.986L128.359 16.96C128.06 17.142 127.683 17.259 127.449 17.259C127.124 17.259 127.007 17.077 127.007 16.544C127.007 16.414 127.007 16.219 127.02 16.024C127.072 14.217 127.072 14.139 127.072 13.866C127.072 12.917 126.552 12.397 125.59 12.397C124.784 12.397 124.017 12.657 123.406 13.138C123.029 13.437 122.756 13.814 122.756 14.035C122.756 14.139 122.834 14.217 122.951 14.217C123.094 14.217 123.536 14.126 123.77 14.061C123.952 13.996 124.017 13.944 124.017 13.814C124.017 13.762 124.017 13.71 124.004 13.658C123.991 13.593 123.991 13.541 123.991 13.515C123.991 13.333 124.355 13.216 124.875 13.216C125.421 13.216 125.72 13.424 125.772 13.853C125.811 14.087 125.811 14.425 125.811 15.153C125.018 15.231 124.264 15.374 123.705 15.543C122.73 15.842 122.535 16.05 122.535 16.804C122.535 17.675 122.964 18.13 123.744 18.13C124.29 18.13 124.888 17.961 125.785 17.558C125.863 17.948 126.11 18.143 126.5 18.143C126.929 18.143 127.618 17.922 128.268 17.571C128.398 17.506 128.411 17.467 128.411 17.285V16.986ZM125.395 15.608C125.694 15.608 125.785 15.712 125.785 16.05C125.785 16.843 125.759 17.012 125.642 17.103C125.434 17.233 124.966 17.35 124.589 17.35C124.043 17.35 123.835 17.103 123.835 16.492C123.835 16.193 123.9 16.102 124.212 15.946C124.576 15.751 125.096 15.608 125.395 15.608ZM132.174 12.436C132.174 12.371 132.148 12.345 132.057 12.345C131.888 12.345 131.862 12.358 131.55 12.488L130.133 13.086C129.99 13.151 129.977 13.164 129.977 13.294C129.977 13.489 129.977 13.489 130.198 13.489C130.562 13.502 130.744 13.593 130.796 13.775C130.848 13.918 130.861 14.204 130.861 15.01C130.861 15.777 130.835 16.635 130.809 16.921C130.77 17.324 130.575 17.532 130.185 17.597C129.964 17.636 129.951 17.649 129.951 17.844C129.951 17.987 129.977 18.013 130.133 18.013C130.198 18.013 130.315 18.013 130.471 18L131.524 17.987C132.525 17.987 132.525 17.987 132.746 18H132.928C133.071 18 133.084 17.987 133.084 17.805C133.084 17.623 133.058 17.597 132.889 17.597C132.486 17.597 132.252 17.493 132.174 17.285C132.096 17.103 132.083 16.804 132.083 15.699C132.083 15.257 132.083 15.062 132.096 14.139C132.096 13.736 132.109 13.723 132.213 13.671C132.603 13.476 133.227 13.333 133.643 13.333C134.111 13.333 134.527 13.554 134.683 13.905C134.813 14.191 134.839 14.464 134.839 15.27C134.839 17.389 134.813 17.506 134.176 17.623C133.981 17.662 133.968 17.662 133.968 17.844C133.968 17.987 133.994 18.026 134.098 18.026C134.15 18.026 134.306 18.026 134.475 18.013L135.385 18H136.503C136.711 18.013 136.906 18.013 136.932 18.013C137.088 18.013 137.127 17.974 137.127 17.818C137.127 17.623 137.114 17.61 136.854 17.61C136.178 17.584 136.087 17.415 136.087 16.206C136.087 16.076 136.087 15.738 136.1 15.075V14.646C136.1 13.957 136.061 13.593 135.957 13.294C135.749 12.735 135.268 12.423 134.605 12.423C134.046 12.423 133.331 12.67 132.109 13.281C132.109 13.138 132.148 12.696 132.174 12.514V12.436ZM80.86 36.013C81.107 36 81.939 35.987 82.238 35.987C82.615 35.987 83.408 36 83.603 36.013L84.11 36.026H84.227C84.305 36.026 84.331 35.974 84.331 35.805C84.331 35.623 84.331 35.623 84.045 35.61C83.265 35.597 83.005 35.402 82.953 34.817C82.914 34.258 82.901 33.751 82.901 31.32C82.901 30.566 82.914 29.318 82.927 28.486C85.462 28.473 85.527 28.499 85.54 29.305C85.54 29.708 85.54 29.708 85.553 29.747C85.579 29.799 85.618 29.812 85.813 29.812C85.969 29.812 85.969 29.812 86.099 29.318C86.203 28.889 86.437 27.797 86.437 27.719C86.437 27.654 86.398 27.628 86.307 27.628C86.242 27.628 86.229 27.628 86.164 27.654C85.852 27.784 84.747 27.823 81.861 27.823C79.911 27.823 78.949 27.771 78.754 27.68C78.637 27.615 78.637 27.615 78.559 27.615C78.442 27.615 78.429 27.628 78.39 27.862C78.273 28.421 78.078 29.539 78.078 29.669C78.078 29.773 78.143 29.812 78.338 29.812C78.494 29.812 78.52 29.786 78.559 29.643C78.819 28.59 79.066 28.486 81.497 28.486C81.51 29.331 81.523 30.241 81.523 31.06C81.523 31.788 81.51 33.088 81.484 33.894C81.471 34.934 81.419 35.142 81.211 35.324C81.016 35.506 80.834 35.545 80.223 35.61C80.119 35.623 80.093 35.649 80.093 35.805C80.093 36 80.106 36.026 80.249 36.026L80.86 36.013ZM91.9023 34.778H91.8113C91.3563 35.116 90.8233 35.298 90.2513 35.298C89.2373 35.298 88.6393 34.596 88.5093 33.283C89.2503 33.127 90.4073 32.919 91.8763 32.672C92.1103 32.633 92.1233 32.62 92.1233 32.438C92.1233 32.191 92.1103 32.152 92.0323 32.126C91.9543 32.1 91.9543 32.1 91.9283 31.983C91.7983 31.528 91.7463 31.398 91.5383 31.138C91.1483 30.67 90.5503 30.397 89.9003 30.397C88.3793 30.397 87.1963 31.762 87.1963 33.543C87.1963 35.168 88.0543 36.143 89.4843 36.143C90.3033 36.143 91.1743 35.831 91.8373 35.285C91.9283 35.22 91.9803 35.155 91.9803 35.103C91.9803 35.077 91.9803 35.077 91.9413 34.973L91.9023 34.778ZM88.4833 32.828C88.4833 31.684 88.8993 30.943 89.5623 30.943C90.0823 30.943 90.6153 31.528 90.6153 32.113C90.6153 32.282 90.4983 32.373 90.1603 32.464C89.6013 32.607 88.9383 32.75 88.4833 32.828ZM100.149 34.986L100.097 34.96C99.7976 35.142 99.4206 35.259 99.1866 35.259C98.8616 35.259 98.7446 35.077 98.7446 34.544C98.7446 34.414 98.7446 34.219 98.7576 34.024C98.8096 32.217 98.8096 32.139 98.8096 31.866C98.8096 30.917 98.2896 30.397 97.3276 30.397C96.5216 30.397 95.7546 30.657 95.1436 31.138C94.7666 31.437 94.4936 31.814 94.4936 32.035C94.4936 32.139 94.5716 32.217 94.6886 32.217C94.8316 32.217 95.2736 32.126 95.5076 32.061C95.6896 31.996 95.7546 31.944 95.7546 31.814C95.7546 31.762 95.7546 31.71 95.7416 31.658C95.7286 31.593 95.7286 31.541 95.7286 31.515C95.7286 31.333 96.0926 31.216 96.6126 31.216C97.1586 31.216 97.4576 31.424 97.5096 31.853C97.5486 32.087 97.5486 32.425 97.5486 33.153C96.7556 33.231 96.0016 33.374 95.4426 33.543C94.4676 33.842 94.2726 34.05 94.2726 34.804C94.2726 35.675 94.7016 36.13 95.4816 36.13C96.0276 36.13 96.6256 35.961 97.5226 35.558C97.6006 35.948 97.8476 36.143 98.2376 36.143C98.6666 36.143 99.3556 35.922 100.006 35.571C100.136 35.506 100.149 35.467 100.149 35.285V34.986ZM97.1326 33.608C97.4316 33.608 97.5226 33.712 97.5226 34.05C97.5226 34.843 97.4966 35.012 97.3796 35.103C97.1716 35.233 96.7036 35.35 96.3266 35.35C95.7806 35.35 95.5726 35.103 95.5726 34.492C95.5726 34.193 95.6376 34.102 95.9496 33.946C96.3136 33.751 96.8336 33.608 97.1326 33.608ZM80.977 47.773C80.977 46.421 80.977 46.421 81.185 46.382C81.341 46.343 81.9 46.317 82.394 46.317C83.33 46.317 83.902 46.408 84.149 46.577C84.357 46.733 84.448 47.006 84.5 47.669C84.513 47.799 84.539 47.825 84.708 47.825C84.851 47.825 84.903 47.812 84.929 47.786C84.955 47.76 84.955 47.747 84.968 47.448C84.968 47.058 85.046 46.343 85.098 46.005C85.111 45.953 85.111 45.901 85.111 45.849C85.111 45.784 85.072 45.745 84.981 45.745H84.76C84.331 45.758 81.952 45.784 80.704 45.784C80.158 45.784 79.079 45.758 78.832 45.745H78.728C78.598 45.745 78.572 45.784 78.572 45.953C78.572 46.135 78.585 46.148 78.78 46.148C79.339 46.174 79.521 46.304 79.547 46.733C79.586 47.084 79.599 48.124 79.599 49.684C79.599 51.53 79.573 52.583 79.521 52.934C79.443 53.48 79.326 53.571 78.598 53.636C78.494 53.636 78.468 53.675 78.468 53.818C78.468 54.026 78.468 54.026 78.663 54.026H78.871C80.119 53.987 80.119 53.987 80.613 53.987C82.277 53.987 83.941 54 84.591 54.026H84.695C84.877 54.026 84.89 54.013 85.033 53.454C85.202 52.83 85.371 52.024 85.371 51.881C85.371 51.79 85.228 51.712 85.046 51.712C84.981 51.712 84.955 51.738 84.89 51.946C84.435 53.168 83.993 53.415 82.173 53.415C81.159 53.415 81.016 53.324 81.003 52.661C80.977 52.076 80.977 51.166 80.977 49.97C83.616 49.97 83.785 50.022 83.889 50.893C83.915 51.127 83.915 51.127 84.123 51.127C84.279 51.127 84.305 51.101 84.305 50.984C84.305 50.932 84.305 50.828 84.292 50.75C84.266 50.178 84.266 50.178 84.266 49.918C84.266 49.554 84.279 49.099 84.305 48.761C84.318 48.631 84.318 48.579 84.318 48.514C84.318 48.397 84.279 48.371 84.123 48.371C83.928 48.371 83.915 48.384 83.889 48.631C83.798 49.385 83.655 49.437 81.458 49.437C81.38 49.437 81.198 49.437 80.977 49.424V47.773ZM91.5824 53.987H91.7384L92.7524 54H92.9474C93.1164 54 93.1294 53.987 93.1294 53.818C93.1294 53.649 93.1164 53.623 92.9994 53.61C92.4534 53.584 92.4144 53.545 90.6854 50.997C92.1934 49.463 92.5314 49.151 92.8694 48.969C93.0774 48.865 93.0774 48.865 93.0774 48.735C93.0774 48.566 93.0514 48.54 92.9344 48.54H92.8694C92.4404 48.566 92.2844 48.566 92.0634 48.566H91.7254C91.1014 48.54 91.0754 48.54 91.0494 48.54C90.9324 48.54 90.9064 48.579 90.9064 48.722C90.9064 48.917 90.9194 48.93 91.1144 48.93C91.4134 48.93 91.5694 49.008 91.5694 49.151C91.5694 49.333 91.2054 49.788 90.4254 50.607C89.5414 49.281 89.5414 49.281 89.5414 49.138C89.5414 49.008 89.6584 48.943 89.8924 48.917C90.0614 48.904 90.0744 48.891 90.0744 48.722C90.0744 48.566 90.0484 48.527 89.9444 48.527H89.8794C89.6194 48.54 89.1644 48.553 88.8004 48.553C88.3974 48.553 88.1634 48.553 87.9034 48.54C87.6174 48.527 87.5654 48.527 87.5134 48.527C87.3574 48.527 87.3444 48.553 87.3444 48.735C87.3444 48.839 87.3574 48.865 87.4224 48.878C87.9164 48.995 87.9294 49.008 89.5544 51.387C87.6304 53.415 87.5004 53.519 87.1234 53.61C87.0194 53.649 87.0064 53.675 87.0064 53.87C87.0064 53.987 87.0324 54.013 87.1754 54.013H87.2664C87.5394 54 87.8904 54 88.1504 54L89.0734 54.013H89.1644C89.3074 54.013 89.3334 53.987 89.3334 53.818C89.3334 53.636 89.3204 53.623 89.1254 53.623C88.7614 53.61 88.6184 53.545 88.6184 53.376C88.6184 53.155 88.6704 53.09 89.8144 51.79C90.4644 52.752 90.8024 53.311 90.8024 53.428C90.8024 53.571 90.6854 53.623 90.3994 53.636C90.1654 53.636 90.1654 53.636 90.1654 53.844C90.1654 54 90.1784 54.013 90.3344 54.013C90.4124 54.013 90.5684 54.013 90.7634 54L91.5824 53.987ZM95.1241 57.51C95.8521 57.471 96.0341 57.471 96.6191 57.471C96.9441 57.471 97.0481 57.471 97.5161 57.484C97.7371 57.497 97.9711 57.497 98.0101 57.497C98.1531 57.497 98.1791 57.471 98.1791 57.302C98.1791 57.107 98.1661 57.094 97.9711 57.081C97.3341 57.055 97.1781 56.951 97.1131 56.561C97.0741 56.366 97.0481 55.521 97.0481 53.948C97.5161 54.052 97.7761 54.091 98.1401 54.091C100.038 54.091 101.481 52.765 101.481 51.01C101.481 49.528 100.48 48.397 99.1801 48.397C98.5951 48.397 98.0621 48.54 97.1001 48.943C97.1001 48.735 97.1131 48.605 97.1391 48.397C97.1521 48.358 97.1521 48.332 97.1521 48.293C97.1521 48.241 97.1131 48.215 96.9961 48.215C96.8271 48.215 96.7361 48.254 96.3071 48.501C96.1771 48.579 96.0471 48.644 95.9041 48.722C95.6441 48.865 95.2411 49.099 95.0201 49.229C94.9421 49.268 94.9421 49.281 94.9421 49.424C94.9421 49.58 94.9421 49.58 95.1631 49.58C95.5271 49.593 95.6571 49.645 95.7351 49.827C95.8131 50.035 95.8261 50.256 95.8261 51.92C95.8261 53.948 95.8131 55.482 95.7741 56.249C95.7481 56.808 95.5921 57.029 95.1371 57.094C94.9031 57.146 94.9031 57.146 94.9031 57.289C94.9031 57.484 94.9161 57.51 95.0461 57.51H95.1241ZM97.0481 52.908C97.0351 52.596 97.0351 52.31 97.0351 52.193C97.0351 51.01 97.0481 49.905 97.0741 49.385C97.4901 49.242 97.8281 49.177 98.2181 49.177C99.4011 49.177 100.233 50.152 100.233 51.53C100.233 52.661 99.6611 53.311 98.6601 53.311C98.0361 53.311 97.5551 53.194 97.0481 52.908ZM108.543 52.778H108.452C107.997 53.116 107.464 53.298 106.892 53.298C105.878 53.298 105.28 52.596 105.15 51.283C105.891 51.127 107.048 50.919 108.517 50.672C108.751 50.633 108.764 50.62 108.764 50.438C108.764 50.191 108.751 50.152 108.673 50.126C108.595 50.1 108.595 50.1 108.569 49.983C108.439 49.528 108.387 49.398 108.179 49.138C107.789 48.67 107.191 48.397 106.541 48.397C105.02 48.397 103.837 49.762 103.837 51.543C103.837 53.168 104.695 54.143 106.125 54.143C106.944 54.143 107.815 53.831 108.478 53.285C108.569 53.22 108.621 53.155 108.621 53.103C108.621 53.077 108.621 53.077 108.582 52.973L108.543 52.778ZM105.124 50.828C105.124 49.684 105.54 48.943 106.203 48.943C106.723 48.943 107.256 49.528 107.256 50.113C107.256 50.282 107.139 50.373 106.801 50.464C106.242 50.607 105.579 50.75 105.124 50.828ZM114.047 54.026C114.177 54.026 114.216 53.987 114.216 53.805C114.216 53.623 114.19 53.61 113.995 53.584C113.475 53.558 113.475 53.558 113.345 53.519C113.15 53.467 113.02 53.337 112.981 53.129C112.929 52.804 112.903 52.271 112.903 51.036C112.903 50.061 112.916 49.97 113.02 49.892C113.345 49.645 113.735 49.489 114.021 49.489C114.281 49.489 114.372 49.567 114.658 49.996C114.697 50.061 114.736 50.087 114.775 50.087C114.84 50.087 114.97 49.996 115.152 49.814C115.36 49.619 115.49 49.359 115.49 49.164C115.49 48.813 115.113 48.371 114.827 48.371C114.567 48.371 114.19 48.605 112.916 49.515C112.916 49.398 112.942 48.891 112.955 48.67C112.981 48.41 112.981 48.41 112.981 48.371C112.981 48.28 112.955 48.254 112.812 48.254C112.682 48.254 112.643 48.254 112.591 48.293C112.058 48.605 111.564 48.865 111.005 49.125C110.927 49.151 110.914 49.177 110.914 49.294C110.914 49.489 110.914 49.489 111.096 49.515C111.655 49.567 111.681 49.632 111.681 51.283C111.681 52.128 111.655 52.7 111.603 53.038C111.551 53.376 111.434 53.493 111.096 53.584C110.875 53.636 110.875 53.636 110.875 53.831C110.875 53.987 110.901 54.013 111.044 54.013C111.083 54.013 111.161 54.013 111.265 54C111.538 53.987 111.889 53.987 112.266 53.987C112.721 53.987 113.631 54 113.956 54.026H114.047ZM120.105 54C120.521 54.026 120.521 54.026 120.534 54.026C120.677 54.026 120.703 53.987 120.703 53.792C120.703 53.636 120.677 53.623 120.495 53.61C119.884 53.558 119.767 53.506 119.689 53.246C119.637 53.077 119.624 52.518 119.624 51.218C119.624 49.866 119.65 48.969 119.702 48.553C119.715 48.501 119.715 48.449 119.715 48.423C119.715 48.345 119.663 48.306 119.585 48.306C119.39 48.306 119 48.449 117.869 48.93L117.648 49.021C117.544 49.06 117.518 49.099 117.518 49.203C117.518 49.398 117.531 49.411 117.713 49.424C118.35 49.515 118.376 49.58 118.376 51.049C118.376 53.324 118.324 53.493 117.609 53.61C117.388 53.636 117.375 53.649 117.375 53.818C117.375 54 117.388 54.013 117.518 54.013H117.596C118.181 54 118.584 53.987 118.974 53.987L120.105 54ZM119.143 45.238C118.766 45.238 118.363 45.641 118.363 46.018C118.363 46.369 118.74 46.746 119.104 46.746C119.481 46.746 119.871 46.356 119.871 45.979C119.871 45.628 119.481 45.238 119.143 45.238ZM127.449 52.778H127.358C126.903 53.116 126.37 53.298 125.798 53.298C124.784 53.298 124.186 52.596 124.056 51.283C124.797 51.127 125.954 50.919 127.423 50.672C127.657 50.633 127.67 50.62 127.67 50.438C127.67 50.191 127.657 50.152 127.579 50.126C127.501 50.1 127.501 50.1 127.475 49.983C127.345 49.528 127.293 49.398 127.085 49.138C126.695 48.67 126.097 48.397 125.447 48.397C123.926 48.397 122.743 49.762 122.743 51.543C122.743 53.168 123.601 54.143 125.031 54.143C125.85 54.143 126.721 53.831 127.384 53.285C127.475 53.22 127.527 53.155 127.527 53.103C127.527 53.077 127.527 53.077 127.488 52.973L127.449 52.778ZM124.03 50.828C124.03 49.684 124.446 48.943 125.109 48.943C125.629 48.943 126.162 49.528 126.162 50.113C126.162 50.282 126.045 50.373 125.707 50.464C125.148 50.607 124.485 50.75 124.03 50.828ZM131.9 48.436C131.9 48.371 131.874 48.345 131.783 48.345C131.614 48.345 131.588 48.358 131.276 48.488L129.859 49.086C129.716 49.151 129.703 49.164 129.703 49.294C129.703 49.489 129.703 49.489 129.924 49.489C130.288 49.502 130.47 49.593 130.522 49.775C130.574 49.918 130.587 50.204 130.587 51.01C130.587 51.777 130.561 52.635 130.535 52.921C130.496 53.324 130.301 53.532 129.911 53.597C129.69 53.636 129.677 53.649 129.677 53.844C129.677 53.987 129.703 54.013 129.859 54.013C129.924 54.013 130.041 54.013 130.197 54L131.25 53.987C132.251 53.987 132.251 53.987 132.472 54H132.654C132.797 54 132.81 53.987 132.81 53.805C132.81 53.623 132.784 53.597 132.615 53.597C132.212 53.597 131.978 53.493 131.9 53.285C131.822 53.103 131.809 52.804 131.809 51.699C131.809 51.257 131.809 51.062 131.822 50.139C131.822 49.736 131.835 49.723 131.939 49.671C132.329 49.476 132.953 49.333 133.369 49.333C133.837 49.333 134.253 49.554 134.409 49.905C134.539 50.191 134.565 50.464 134.565 51.27C134.565 53.389 134.539 53.506 133.902 53.623C133.707 53.662 133.694 53.662 133.694 53.844C133.694 53.987 133.72 54.026 133.824 54.026C133.876 54.026 134.032 54.026 134.201 54.013L135.111 54H136.229C136.437 54.013 136.632 54.013 136.658 54.013C136.814 54.013 136.853 53.974 136.853 53.818C136.853 53.623 136.84 53.61 136.58 53.61C135.904 53.584 135.813 53.415 135.813 52.206C135.813 52.076 135.813 51.738 135.826 51.075V50.646C135.826 49.957 135.787 49.593 135.683 49.294C135.475 48.735 134.994 48.423 134.331 48.423C133.772 48.423 133.057 48.67 131.835 49.281C131.835 49.138 131.874 48.696 131.9 48.514V48.436ZM143.324 52.752C142.921 53.077 142.401 53.259 141.855 53.259C140.802 53.259 140.139 52.388 140.139 51.01C140.139 49.853 140.555 49.229 141.309 49.229C141.79 49.229 142.258 49.372 142.596 49.632C142.765 49.749 142.817 49.775 142.908 49.775C143.181 49.775 143.597 49.372 143.597 49.112C143.597 48.709 142.934 48.397 142.063 48.397C140.23 48.397 138.813 49.814 138.813 51.621C138.813 53.129 139.762 54.143 141.179 54.143C141.777 54.143 142.362 53.961 142.973 53.597C143.35 53.376 143.558 53.194 143.558 53.103C143.558 53.09 143.558 53.09 143.506 52.999L143.402 52.752H143.324ZM150.595 52.778H150.504C150.049 53.116 149.516 53.298 148.944 53.298C147.93 53.298 147.332 52.596 147.202 51.283C147.943 51.127 149.1 50.919 150.569 50.672C150.803 50.633 150.816 50.62 150.816 50.438C150.816 50.191 150.803 50.152 150.725 50.126C150.647 50.1 150.647 50.1 150.621 49.983C150.491 49.528 150.439 49.398 150.231 49.138C149.841 48.67 149.243 48.397 148.593 48.397C147.072 48.397 145.889 49.762 145.889 51.543C145.889 53.168 146.747 54.143 148.177 54.143C148.996 54.143 149.867 53.831 150.53 53.285C150.621 53.22 150.673 53.155 150.673 53.103C150.673 53.077 150.673 53.077 150.634 52.973L150.595 52.778ZM147.176 50.828C147.176 49.684 147.592 48.943 148.255 48.943C148.775 48.943 149.308 49.528 149.308 50.113C149.308 50.282 149.191 50.373 148.853 50.464C148.294 50.607 147.631 50.75 147.176 50.828ZM80.86 90.013C81.107 90 81.939 89.987 82.238 89.987C82.615 89.987 83.408 90 83.603 90.013L84.11 90.026H84.227C84.305 90.026 84.331 89.974 84.331 89.805C84.331 89.623 84.331 89.623 84.045 89.61C83.265 89.597 83.005 89.402 82.953 88.817C82.914 88.258 82.901 87.751 82.901 85.32C82.901 84.566 82.914 83.318 82.927 82.486C85.462 82.473 85.527 82.499 85.54 83.305C85.54 83.708 85.54 83.708 85.553 83.747C85.579 83.799 85.618 83.812 85.813 83.812C85.969 83.812 85.969 83.812 86.099 83.318C86.203 82.889 86.437 81.797 86.437 81.719C86.437 81.654 86.398 81.628 86.307 81.628C86.242 81.628 86.229 81.628 86.164 81.654C85.852 81.784 84.747 81.823 81.861 81.823C79.911 81.823 78.949 81.771 78.754 81.68C78.637 81.615 78.637 81.615 78.559 81.615C78.442 81.615 78.429 81.628 78.39 81.862C78.273 82.421 78.078 83.539 78.078 83.669C78.078 83.773 78.143 83.812 78.338 83.812C78.494 83.812 78.52 83.786 78.559 83.643C78.819 82.59 79.066 82.486 81.497 82.486C81.51 83.331 81.523 84.241 81.523 85.06C81.523 85.788 81.51 87.088 81.484 87.894C81.471 88.934 81.419 89.142 81.211 89.324C81.016 89.506 80.834 89.545 80.223 89.61C80.119 89.623 80.093 89.649 80.093 89.805C80.093 90 80.106 90.026 80.249 90.026L80.86 90.013ZM93.1992 88.986L93.1472 88.96C92.8482 89.142 92.4712 89.259 92.2372 89.259C91.9122 89.259 91.7952 89.077 91.7952 88.544C91.7952 88.414 91.7952 88.219 91.8082 88.024C91.8602 86.217 91.8602 86.139 91.8602 85.866C91.8602 84.917 91.3402 84.397 90.3782 84.397C89.5722 84.397 88.8052 84.657 88.1942 85.138C87.8172 85.437 87.5442 85.814 87.5442 86.035C87.5442 86.139 87.6222 86.217 87.7392 86.217C87.8822 86.217 88.3242 86.126 88.5582 86.061C88.7402 85.996 88.8052 85.944 88.8052 85.814C88.8052 85.762 88.8052 85.71 88.7922 85.658C88.7792 85.593 88.7792 85.541 88.7792 85.515C88.7792 85.333 89.1432 85.216 89.6632 85.216C90.2092 85.216 90.5082 85.424 90.5602 85.853C90.5992 86.087 90.5992 86.425 90.5992 87.153C89.8062 87.231 89.0522 87.374 88.4932 87.543C87.5182 87.842 87.3232 88.05 87.3232 88.804C87.3232 89.675 87.7522 90.13 88.5322 90.13C89.0782 90.13 89.6762 89.961 90.5732 89.558C90.6512 89.948 90.8982 90.143 91.2882 90.143C91.7172 90.143 92.4062 89.922 93.0562 89.571C93.1862 89.506 93.1992 89.467 93.1992 89.285V88.986ZM90.1832 87.608C90.4822 87.608 90.5732 87.712 90.5732 88.05C90.5732 88.843 90.5472 89.012 90.4302 89.103C90.2222 89.233 89.7542 89.35 89.3772 89.35C88.8312 89.35 88.6232 89.103 88.6232 88.492C88.6232 88.193 88.6882 88.102 89.0002 87.946C89.3642 87.751 89.8842 87.608 90.1832 87.608ZM97.391 90C97.807 90.026 97.807 90.026 97.82 90.026C97.963 90.026 97.989 89.987 97.989 89.792C97.989 89.636 97.963 89.623 97.781 89.61C97.17 89.558 97.053 89.506 96.975 89.246C96.923 89.077 96.91 88.518 96.91 87.218C96.91 85.866 96.936 84.969 96.988 84.553C97.001 84.501 97.001 84.449 97.001 84.423C97.001 84.345 96.949 84.306 96.871 84.306C96.676 84.306 96.286 84.449 95.155 84.93L94.934 85.021C94.83 85.06 94.804 85.099 94.804 85.203C94.804 85.398 94.817 85.411 94.999 85.424C95.636 85.515 95.662 85.58 95.662 87.049C95.662 89.324 95.61 89.493 94.895 89.61C94.674 89.636 94.661 89.649 94.661 89.818C94.661 90 94.674 90.013 94.804 90.013H94.882C95.467 90 95.87 89.987 96.26 89.987L97.391 90ZM96.429 81.238C96.052 81.238 95.649 81.641 95.649 82.018C95.649 82.369 96.026 82.746 96.39 82.746C96.767 82.746 97.157 82.356 97.157 81.979C97.157 81.628 96.767 81.238 96.429 81.238ZM100.068 93.51C100.796 93.471 100.978 93.471 101.563 93.471C101.888 93.471 101.992 93.471 102.46 93.484C102.681 93.497 102.915 93.497 102.954 93.497C103.097 93.497 103.123 93.471 103.123 93.302C103.123 93.107 103.11 93.094 102.915 93.081C102.278 93.055 102.122 92.951 102.057 92.561C102.018 92.366 101.992 91.521 101.992 89.948C102.46 90.052 102.72 90.091 103.084 90.091C104.982 90.091 106.425 88.765 106.425 87.01C106.425 85.528 105.424 84.397 104.124 84.397C103.539 84.397 103.006 84.54 102.044 84.943C102.044 84.735 102.057 84.605 102.083 84.397C102.096 84.358 102.096 84.332 102.096 84.293C102.096 84.241 102.057 84.215 101.94 84.215C101.771 84.215 101.68 84.254 101.251 84.501C101.121 84.579 100.991 84.644 100.848 84.722C100.588 84.865 100.185 85.099 99.9637 85.229C99.8857 85.268 99.8857 85.281 99.8857 85.424C99.8857 85.58 99.8857 85.58 100.107 85.58C100.471 85.593 100.601 85.645 100.679 85.827C100.757 86.035 100.77 86.256 100.77 87.92C100.77 89.948 100.757 91.482 100.718 92.249C100.692 92.808 100.536 93.029 100.081 93.094C99.8467 93.146 99.8467 93.146 99.8467 93.289C99.8467 93.484 99.8597 93.51 99.9897 93.51H100.068ZM101.992 88.908C101.979 88.596 101.979 88.31 101.979 88.193C101.979 87.01 101.992 85.905 102.018 85.385C102.434 85.242 102.772 85.177 103.162 85.177C104.345 85.177 105.177 86.152 105.177 87.53C105.177 88.661 104.605 89.311 103.604 89.311C102.98 89.311 102.499 89.194 101.992 88.908ZM113.487 88.778H113.396C112.941 89.116 112.408 89.298 111.836 89.298C110.822 89.298 110.224 88.596 110.094 87.283C110.835 87.127 111.992 86.919 113.461 86.672C113.695 86.633 113.708 86.62 113.708 86.438C113.708 86.191 113.695 86.152 113.617 86.126C113.539 86.1 113.539 86.1 113.513 85.983C113.383 85.528 113.331 85.398 113.123 85.138C112.733 84.67 112.135 84.397 111.485 84.397C109.964 84.397 108.781 85.762 108.781 87.543C108.781 89.168 109.639 90.143 111.069 90.143C111.888 90.143 112.759 89.831 113.422 89.285C113.513 89.22 113.565 89.155 113.565 89.103C113.565 89.077 113.565 89.077 113.526 88.973L113.487 88.778ZM110.068 86.828C110.068 85.684 110.484 84.943 111.147 84.943C111.667 84.943 112.2 85.528 112.2 86.113C112.2 86.282 112.083 86.373 111.745 86.464C111.186 86.607 110.523 86.75 110.068 86.828ZM118.366 90C118.782 90.026 118.782 90.026 118.795 90.026C118.938 90.026 118.964 89.987 118.964 89.792C118.964 89.636 118.938 89.623 118.756 89.61C118.145 89.558 118.028 89.506 117.95 89.246C117.898 89.077 117.885 88.518 117.885 87.218C117.885 85.866 117.911 84.969 117.963 84.553C117.976 84.501 117.976 84.449 117.976 84.423C117.976 84.345 117.924 84.306 117.846 84.306C117.651 84.306 117.261 84.449 116.13 84.93L115.909 85.021C115.805 85.06 115.779 85.099 115.779 85.203C115.779 85.398 115.792 85.411 115.974 85.424C116.611 85.515 116.637 85.58 116.637 87.049C116.637 89.324 116.585 89.493 115.87 89.61C115.649 89.636 115.636 89.649 115.636 89.818C115.636 90 115.649 90.013 115.779 90.013H115.857C116.442 90 116.845 89.987 117.235 89.987L118.366 90ZM117.404 81.238C117.027 81.238 116.624 81.641 116.624 82.018C116.624 82.369 117.001 82.746 117.365 82.746C117.742 82.746 118.132 82.356 118.132 81.979C118.132 81.628 117.742 81.238 117.404 81.238ZM125.44 93.016C125.791 91.69 128.82 83.175 129.782 80.796H128.911C128.677 81.68 128.287 82.824 126.922 86.659C125.154 91.534 124.842 92.366 124.569 93.016H125.44ZM139.408 85.931C142.073 88.973 142.242 89.168 142.242 89.35C142.242 89.506 142.06 89.597 141.709 89.61C141.488 89.623 141.462 89.636 141.462 89.779C141.462 89.987 141.475 90.013 141.592 90.013H141.696C141.839 90 142.723 89.987 142.996 89.987C143.217 89.987 144.387 90 144.673 90.013H144.816C144.985 90.013 145.011 89.987 145.011 89.818C145.011 89.675 144.985 89.649 144.894 89.623C144.504 89.584 144.348 89.454 143.295 88.297C141.111 85.879 140.981 85.71 140.448 85.086C140.513 85.034 140.578 84.982 140.656 84.93C143.451 82.551 143.672 82.382 144.335 82.174C144.595 82.109 144.595 82.109 144.595 81.94C144.595 81.784 144.569 81.745 144.452 81.745H144.348C143.49 81.784 143.373 81.784 142.515 81.784H142.086C141.397 81.758 141.397 81.758 141.384 81.758C141.241 81.758 141.215 81.797 141.215 81.966C141.215 82.135 141.241 82.161 141.41 82.161C141.956 82.174 142.151 82.265 142.151 82.473C142.151 82.694 141.722 83.175 140.708 84.111C140.058 84.696 139.447 85.242 138.875 85.762C138.875 84.878 138.901 83.526 138.927 83.162C138.966 82.369 139.07 82.252 139.72 82.161C139.954 82.122 139.967 82.122 139.967 81.927V81.862C139.967 81.771 139.941 81.745 139.837 81.745H139.746C139.148 81.771 138.576 81.784 138.277 81.784C138.043 81.784 137.016 81.758 136.73 81.745H136.613C136.509 81.745 136.483 81.784 136.483 81.94C136.483 82.109 136.483 82.109 136.73 82.135C137.484 82.226 137.51 82.317 137.51 84.722C137.51 86.698 137.484 88.089 137.445 88.687C137.38 89.376 137.276 89.506 136.574 89.636C136.47 89.649 136.444 89.675 136.444 89.805C136.444 90.013 136.457 90.026 136.587 90.026H136.678C137.51 90.013 138.043 90 138.303 90C138.628 90 139.2 90 139.369 90.013H139.785C140.019 90.013 140.019 90.013 140.019 89.792C140.019 89.623 140.019 89.623 139.759 89.61C139.07 89.545 138.979 89.454 138.927 88.752C138.888 88.362 138.888 88.115 138.875 86.373L139.408 85.931ZM148.124 84.527C147.643 84.553 147.435 84.553 146.928 84.553C146.603 84.553 146.317 84.553 146.07 84.54L145.862 84.527H145.745C145.615 84.527 145.589 84.553 145.589 84.722C145.589 84.878 145.589 84.891 145.784 84.956C146.083 85.06 146.213 85.333 146.967 87.309C147.734 89.324 148.033 90.13 148.033 90.221C148.033 90.299 147.578 91.118 147.331 91.495C146.876 92.184 146.564 92.522 146.226 92.704C145.836 92.912 145.81 92.951 145.81 93.211C145.81 93.445 145.927 93.523 146.278 93.523C146.993 93.523 147.136 93.406 147.565 92.444C148.774 89.805 148.852 89.636 149.983 87.517C151.179 85.32 151.322 85.112 151.66 84.93C151.751 84.878 151.764 84.839 151.764 84.735C151.764 84.566 151.738 84.527 151.634 84.527H151.504C151.322 84.54 150.88 84.54 150.698 84.54C150.503 84.54 149.996 84.54 149.918 84.527H149.736C149.619 84.527 149.593 84.566 149.593 84.735C149.593 84.904 149.606 84.917 149.814 84.93C150.217 84.969 150.334 85.034 150.334 85.255C150.334 85.541 150.139 85.983 148.813 88.765C148.241 87.322 147.643 85.554 147.643 85.255C147.643 85.073 147.799 84.969 148.072 84.943C148.345 84.917 148.345 84.917 148.345 84.709C148.345 84.553 148.319 84.527 148.189 84.527H148.124ZM156.31 84.397C154.334 84.397 153.021 85.58 153.021 87.348C153.021 89.012 154.191 90.143 155.881 90.143C157.766 90.143 159.157 88.882 159.157 87.179C159.157 85.567 157.961 84.397 156.31 84.397ZM155.842 84.956C156.934 84.956 157.766 86.126 157.766 87.673C157.766 88.843 157.194 89.584 156.297 89.584C155.218 89.584 154.412 88.427 154.412 86.906C154.412 85.723 154.971 84.956 155.842 84.956ZM163.264 85.255C163.94 85.268 165.318 85.255 165.37 85.242C165.448 85.229 165.448 85.203 165.448 84.865C165.448 84.527 165.448 84.527 165.253 84.527H164.85L164.161 84.54H163.29C163.303 84.254 163.329 83.825 163.368 83.591V83.513C163.368 83.448 163.329 83.422 163.212 83.422C163.043 83.422 163.043 83.422 162.913 83.565C162.562 83.981 162.003 84.462 161.431 84.865C161.366 84.917 161.353 84.943 161.353 85.047C161.353 85.229 161.366 85.242 161.47 85.242H162.029C161.964 87.322 161.938 88.427 161.938 88.57C161.938 89.168 162.029 89.506 162.276 89.766C162.484 89.987 162.861 90.13 163.238 90.13C163.784 90.13 164.551 89.909 165.188 89.558C165.37 89.454 165.37 89.454 165.37 89.285V89.038H165.253C164.85 89.22 164.564 89.298 164.213 89.298C163.862 89.298 163.563 89.181 163.407 88.999C163.264 88.804 163.225 88.557 163.225 87.881V87.348C163.225 87.062 163.238 86.62 163.251 86.087L163.264 85.489V85.255ZM170.565 84.397C168.589 84.397 167.276 85.58 167.276 87.348C167.276 89.012 168.446 90.143 170.136 90.143C172.021 90.143 173.412 88.882 173.412 87.179C173.412 85.567 172.216 84.397 170.565 84.397ZM170.097 84.956C171.189 84.956 172.021 86.126 172.021 87.673C172.021 88.843 171.449 89.584 170.552 89.584C169.473 89.584 168.667 88.427 168.667 86.906C168.667 85.723 169.226 84.956 170.097 84.956Z" fill="white"/>
<g clip-path="url(#clip0)">
<path d="M31.5227 77.0906C31.521 77.1012 31.5061 77.1942 31.4912 77.2873C31.0483 77.6115 30.7746 78.1081 30.3467 78.4449C30.2442 78.5256 30.1138 78.5695 29.9638 78.6471C29.9313 78.8684 29.8661 79.1106 29.5301 79.1331C29.4553 79.1382 29.3882 79.2415 29.3148 79.2958C29.2222 79.3643 29.1342 79.4459 29.0314 79.492C28.7473 79.6193 28.7216 79.8453 28.7886 80.1685C28.9735 80.1143 29.1686 80.0872 29.3341 80.0012C29.5419 79.8933 29.7632 79.7698 29.9109 79.594C30.1308 79.3323 30.4084 79.2215 30.7055 79.1104C30.8137 79.0699 30.8923 78.95 30.988 78.8708C31.0516 78.8182 31.1176 78.766 31.1896 78.727C31.3246 78.6539 31.4648 78.5906 31.5866 78.4782C31.8501 78.3748 32.1127 78.2689 32.3775 78.1692C32.5009 78.1228 32.6287 78.0887 32.7544 78.0486C32.8691 78.0121 32.9815 77.9607 33.099 77.9423C33.2067 77.9253 33.3215 77.9326 33.4297 77.9506C33.4907 77.9606 33.5537 78.0523 33.6007 78.0412C33.9608 77.9562 34.3408 77.9683 34.6745 77.7401C34.7846 77.6647 35.0517 77.7002 35.1668 77.7907C35.3217 77.9126 35.4068 77.9426 35.5428 77.8008C35.7248 77.6111 35.908 77.5852 36.0793 77.8195C36.0928 77.838 36.1122 77.8728 36.1218 77.8704C36.4752 77.7832 36.6638 78.1182 36.9483 78.2136C37.1 78.2644 37.1962 78.466 37.3405 78.5645C37.6148 78.7516 37.6912 79.0448 37.7875 79.3319C37.7912 79.3429 37.7838 79.3622 37.7899 79.3672C38.0806 79.6094 38.1909 79.9253 38.1909 80.302C38.1909 80.4313 38.2916 80.56 38.2942 80.6899C38.3059 81.2964 38.2723 81.905 38.3118 82.509C38.3293 82.7765 38.4814 83.0349 38.5885 83.3438C38.4515 83.5733 38.2658 83.8845 38.0589 84.2311C37.6282 84.3207 37.2975 84.7646 37.2659 85.2701C37.229 85.8587 37.1427 86.444 37.0774 87.0348C36.6441 87.1482 36.2478 87.5559 36.1918 87.9607C36.0865 87.9936 35.9203 87.9943 35.8796 88.0674C35.7449 88.3097 35.6214 88.571 35.5663 88.8404C35.5462 88.9391 35.7088 89.1094 35.8248 89.1963C35.9895 89.3198 36.1886 89.3954 36.3719 89.4937C36.4112 89.5148 36.4521 89.5741 36.4814 89.5672C36.9437 89.4589 37.3195 89.7413 37.66 89.9398C38.1172 90.2062 38.6352 90.2128 39.0836 90.442C39.581 90.6963 40.1181 90.8109 40.6423 90.9766C41.0571 91.1078 41.4478 91.3171 41.8532 91.4814C41.937 91.5154 42.0391 91.5007 42.1321 91.5138C42.3338 91.5424 42.5804 91.4136 42.7135 91.6999C42.7315 91.7387 42.8686 91.7209 42.9507 91.7278C43.5625 91.7797 44.1775 91.8083 44.7848 91.8934C45.0515 91.9308 45.3028 92.083 45.5856 92.1926C45.6872 92.0805 45.8054 91.8455 46.0205 92.1926C46.09 92.3047 46.2856 92.3737 46.4319 92.3916C47.0082 92.4623 47.588 92.5031 48.1661 92.5586C48.3289 92.5742 48.5217 92.4853 48.6249 92.7253C48.6464 92.7756 48.8219 92.7571 48.9264 92.7705C49.4029 92.8315 49.8779 92.9172 50.3563 92.9469C50.8547 92.9779 51.3695 92.8872 51.851 92.9842C52.0877 93.0319 52.4403 92.9784 52.6045 93.2895C52.6132 93.306 52.6486 93.3204 52.6681 93.3167C53.1473 93.2248 53.5107 93.565 54.0002 93.6904C53.9346 93.8638 53.9005 94.057 53.7993 94.2013C53.5654 94.5349 53.6169 95.0365 53.1673 95.2526C53.051 95.3086 52.9926 95.5276 52.9441 95.6835C52.8657 95.9356 52.8176 96.1975 52.7567 96.4552C52.7318 96.4378 52.707 96.4203 52.6821 96.4028C52.5861 96.5194 52.5055 96.656 52.3905 96.7482C52.186 96.9122 51.9768 97.089 51.7403 97.1885C51.3799 97.34 51.0043 97.4404 50.6607 97.6497C50.4866 97.7557 50.2303 97.7216 49.991 97.7535C49.9246 97.9414 49.8802 98.1636 49.7706 98.3448C49.6922 98.4743 49.527 98.5496 49.3987 98.6467C49.3815 98.6597 49.3465 98.6504 49.3319 98.6644C48.7231 99.2543 47.9809 98.8766 47.3055 98.9235C46.9218 98.9502 46.4785 98.8205 46.1439 98.6198C45.862 98.4507 45.596 98.4453 45.3087 98.4239C45.2231 98.197 45.1658 97.9696 45.0526 97.7761C44.9938 97.6755 44.8409 97.6244 44.7222 97.5698C44.594 97.5107 44.4562 97.4735 44.2671 97.4074C44.1762 97.5272 44.0694 97.6977 43.8222 97.3906C43.6928 97.2298 43.3401 97.2238 43.0847 97.2082C42.7807 97.1896 42.5415 97.111 42.3035 96.8941C42.0966 96.7054 41.788 96.6375 41.5441 96.4838C41.376 96.3779 41.2429 96.2149 41.0912 96.0809C41.0428 96.0381 40.9892 95.9957 40.9306 95.9713C40.7004 95.8756 40.4428 95.8246 40.2404 95.6879C39.8588 95.4302 39.4824 95.1718 39.1767 94.7952C38.9963 94.573 38.6111 94.5364 38.349 94.3668C37.9515 94.1096 37.4993 93.9777 37.1229 93.6389C36.8571 93.3996 36.5472 93.0891 36.0585 93.0775C35.707 93.0691 35.2671 92.9606 34.9806 92.6238C34.9379 92.5736 34.8294 92.5536 34.7566 92.5628C34.4504 92.6013 34.2113 92.4571 33.9645 92.3061C33.5645 92.0615 33.1272 92.2715 33.0572 92.6747C32.6912 92.8833 32.3655 93.0914 32.0203 93.2576C31.7992 93.3641 31.5503 93.4118 31.3124 93.4802C31.131 93.5323 30.944 93.624 30.7652 93.6118C30.4612 93.5911 30.2941 93.7735 30.0947 93.9423C30.0255 94.0009 29.8946 93.9979 29.7917 93.9985C29.0771 94.0029 28.3622 94.0122 27.648 93.9952C27.3588 93.9883 27.0832 93.8904 26.8993 93.6333C26.8611 93.5797 26.8488 93.5075 26.8218 93.445C26.6863 93.1307 25.8958 92.9618 25.6324 93.1815C25.5521 93.2485 25.443 93.3174 25.3457 93.3195C24.7623 93.3323 24.1784 93.3331 23.5951 93.3196C23.4801 93.3169 23.367 93.2338 23.2119 93.1712C23.1369 93.2126 23.0037 93.2863 22.8628 93.3642C22.7798 93.1483 22.7235 93.002 22.6588 92.8338C22.7685 92.6037 22.9674 92.5202 23.2392 92.5516C23.3341 92.5625 23.4837 92.5381 23.5269 92.4734C23.6887 92.2314 23.9273 92.1953 24.1488 92.2593C24.4639 92.3503 24.6293 92.0904 24.8411 91.9884C25.2336 91.7993 25.5624 91.4783 25.9389 91.2481C26.3057 91.0239 26.7084 90.8609 27.0768 90.639C27.2673 90.5242 27.4176 90.3401 27.6129 90.1629C27.9531 90.5563 28.3181 90.0186 28.7325 90.1273C28.7325 89.9458 28.7325 89.7942 28.7325 89.6226C28.633 89.5997 28.5319 89.5764 28.4307 89.5532C28.4217 89.546 28.4055 89.5397 28.4045 89.5315C28.3363 88.9735 27.8182 88.8555 27.4737 88.589C27.1472 88.3364 26.7206 88.2208 26.3822 87.9806C26.1597 87.8227 26.0153 87.5505 25.891 87.2808C25.694 87.1982 25.4969 87.1156 25.2784 87.0241C25.2784 86.8454 25.2784 86.6454 25.2784 86.3592C25.5617 86.4781 25.7989 86.5777 26.0003 86.6622C26.3569 86.5759 26.7025 86.4952 27.0465 86.4078C27.3324 86.3352 27.6889 86.5914 27.9094 86.2157C28.5737 86.2187 29.2383 86.214 29.9022 86.2328C30.0033 86.2356 30.0952 86.3646 30.2024 86.405C30.4625 86.5031 30.6597 86.3297 30.7859 86.1591C30.9576 85.927 31.0565 85.639 31.1998 85.3482C31.2743 85.3387 31.3758 85.3258 31.5062 85.3093C31.5062 85.1479 31.5055 85.0046 31.5065 84.8614C31.507 84.8009 31.4885 84.7034 31.5168 84.6856C31.9483 84.4135 31.8784 83.872 32.1358 83.5095C32.1489 83.491 32.1777 83.4793 32.1824 83.4602C32.2613 83.1349 32.3379 82.809 32.4139 82.483C32.4247 82.4365 32.4132 82.366 32.4405 82.3448C32.9606 81.9419 32.5948 81.3915 32.7458 80.8833C32.368 80.921 32.0698 80.7741 31.7658 81.0609C31.5647 81.2507 31.2269 81.3341 30.9383 81.3733C30.531 81.4287 30.4435 81.8517 30.1296 82.0013C29.9746 82.0752 29.8391 82.1928 29.6983 82.2956C29.6154 82.3561 29.5209 82.4128 29.4632 82.4944C29.0608 83.0631 28.5372 83.4269 27.8461 83.5198C27.6401 83.9298 27.166 83.5758 26.9 83.8625C26.8358 83.9316 26.6464 83.8687 26.5188 83.8912C26.3783 83.9159 26.2445 83.98 26.1041 84.0061C26.0056 84.0244 25.8774 84.046 25.8035 83.9991C25.5921 83.865 25.4076 83.6875 25.1997 83.547C25.1283 83.4987 25.0186 83.5092 24.892 83.4866C25.0699 83.2955 25.2068 83.0931 25.3925 82.9631C25.6271 82.7987 25.6472 82.5899 25.6231 82.3465C25.6009 82.1232 25.6262 81.921 25.8239 81.7764C25.8655 81.7459 25.9175 81.6891 25.9166 81.6455C25.9048 81.0707 26.2096 80.6726 26.5915 80.2982C26.7104 80.1817 26.7513 79.982 26.8251 79.819C26.8488 79.7668 26.8518 79.7016 26.884 79.6573C27.0621 79.4125 27.2461 79.1722 27.4288 78.931C27.4355 78.9221 27.4584 78.9178 27.458 78.9126C27.4167 78.3508 28.0852 78.0773 28.0124 77.5C28.0068 77.4554 28.0556 77.3958 28.0919 77.355C28.2766 77.1468 28.2679 77.0823 28.0226 76.9138C28.291 76.6825 28.288 76.5802 28.0118 76.3816C27.747 76.1911 27.4838 76.0268 27.1285 76.0713C27.0029 76.087 26.8566 75.9858 26.7295 75.9188C26.6035 75.8524 26.4898 75.762 26.3257 75.652C26.2088 75.3987 26.0624 75.0815 25.9238 74.7811C26.1213 74.6745 26.2909 74.5485 26.4806 74.4892C26.7321 74.4105 26.8357 74.2512 26.8396 74.0071C27.1618 73.9242 27.4869 73.55 27.4658 73.2692C27.365 73.2633 27.2608 73.258 27.1566 73.251C26.4023 73.2003 25.6479 73.1519 24.8939 73.0966C24.6559 73.0792 24.4514 72.6495 24.62 72.3668C24.6651 72.2911 24.7331 72.1787 24.7082 72.1186C24.5315 71.6915 24.7809 71.2708 24.7076 70.854C24.6818 70.7069 24.5962 70.5113 24.4828 70.4568C24.3733 70.4041 24.1941 70.5131 24.0433 70.5364C23.6346 70.5998 23.4724 71.0028 23.1572 71.1924C23.0626 71.2492 22.9542 71.2822 22.8218 71.3393C22.1829 72.5276 22.3683 73.6796 23.1441 74.763C23.0301 74.97 22.7056 75.0126 22.7877 75.3243C22.8053 75.3912 22.8054 75.4721 22.8439 75.5226C23.0628 75.8102 23.022 76.0236 22.8463 76.3294C22.6916 76.5984 22.5703 76.8682 22.2904 77.03C22.1485 77.1121 22.0294 77.2347 21.8888 77.3198C21.8353 77.3522 21.7112 77.3621 21.6857 77.329C21.3386 76.8789 21.1558 77.3713 20.9002 77.4552C20.7987 77.4885 20.6744 77.4572 20.5616 77.4448C20.3992 77.4271 20.2324 77.3622 20.0772 77.3854C19.8513 77.4191 19.634 77.5132 19.3863 77.5899C19.3562 77.3908 19.3404 77.2866 19.3256 77.1888C19.0495 77.1069 18.777 77.0261 18.48 76.9379C18.5215 76.6015 18.3895 76.3533 18.0322 76.2096C18.137 76.126 18.2027 76.0735 18.2374 76.0459C18.1692 75.8843 18.1149 75.7309 18.0419 75.5874C17.8461 75.2026 17.9005 74.7886 18.1911 74.4791C18.234 74.4335 18.2731 74.3717 18.2857 74.3112C18.3514 73.9962 18.4319 73.6814 18.4611 73.3621C18.4919 73.0252 18.4703 72.6834 18.4728 72.3437C18.473 72.3205 18.483 72.2974 18.4952 72.2461C18.5902 72.2189 18.6984 72.1879 18.8329 72.1494C18.8329 71.5499 18.8141 70.9563 18.8413 70.365C18.8537 70.0951 18.9542 69.8289 19.02 69.5624C19.0519 69.4332 19.1322 69.3054 19.1266 69.1799C19.1145 68.9109 19.1855 68.7113 19.3505 68.4854C19.4821 68.3052 19.4447 68.0011 19.4979 67.7555C19.5283 67.6151 19.5588 67.4516 19.6482 67.3551C19.7133 67.2849 19.895 67.2574 19.9896 67.2973C20.363 67.4549 20.3579 67.4676 20.4279 67.0701C20.5026 67.0615 20.5826 67.047 20.663 67.0446C20.7327 67.0426 20.8029 67.0543 20.9299 67.0645C20.7546 67.5468 21.1221 67.8626 21.2802 68.2634C21.4727 68.3361 21.6938 68.4197 21.9203 68.5053C22.0522 69.0228 22.5 69.1584 22.925 68.8259C23.1223 68.6716 23.3631 68.5756 23.5821 68.4492C23.6299 68.4216 23.6742 68.3824 23.7105 68.3399C23.9568 68.052 24.2851 67.9179 24.6123 67.748C24.9125 67.5922 25.1812 67.4219 25.5254 67.3975C25.59 67.393 25.6767 67.3103 25.7051 67.2428C25.8639 66.8648 26.1632 66.8245 26.5102 66.857C26.6752 66.8724 27.1607 66.6665 27.3903 66.5175C27.4184 66.4992 27.4573 66.4975 27.4916 66.4897C27.7229 66.4375 27.9745 66.4281 28.1816 66.3253C28.6426 66.0965 29.1232 66.2255 29.5925 66.1761C29.7201 66.1627 29.8374 66.0655 29.964 66.0198C30.1641 65.9475 30.3656 65.8763 30.5711 65.8231C30.8222 65.7581 31.0877 65.7395 31.3297 65.6516C31.7007 65.5168 32.0572 65.3407 32.4191 65.1802C32.4588 65.1626 32.4901 65.1239 32.5303 65.109C32.8576 64.9872 33.186 64.8686 33.5141 64.7493C33.5252 64.7453 33.5373 64.7435 33.5491 64.7421C33.9814 64.689 34.4142 64.6392 34.8458 64.5815C35.0365 64.556 35.2849 64.6921 35.3879 64.3925C35.394 64.3748 35.4529 64.374 35.4877 64.3689C35.8364 64.3172 36.1859 64.27 36.5337 64.2121C36.6061 64.2 36.6977 64.1677 36.7369 64.1126C36.9256 63.8469 37.1885 63.857 37.4722 63.8371C37.8838 63.8081 38.3172 63.9903 38.7106 63.7259C38.7345 63.7098 38.8025 63.7712 38.853 63.7845C38.9392 63.8071 39.0311 63.8446 39.1146 63.8325C39.3599 63.7969 39.6039 63.7472 39.8453 63.69C40.2821 63.5864 40.7116 63.4553 41.1721 63.4915C41.2629 63.4986 41.3909 63.2927 41.4556 63.3163C41.6463 63.3861 41.832 63.5007 41.9854 63.6376C42.1322 63.7686 42.2684 63.8396 42.4701 63.8618C42.6499 63.8816 42.8213 64.0115 42.989 64.1065C43.2518 64.2553 43.4938 64.4981 43.7713 64.5484C44.0684 64.6024 44.2905 64.7318 44.5311 64.8832C44.8779 65.1016 45.1987 65.34 45.5147 65.6085C45.997 66.0182 46.27 66.5803 46.6867 67.0334C46.9402 67.309 47.0224 67.7475 47.184 68.1117C47.2616 68.2867 47.3076 68.4963 47.4323 68.6261C47.8121 69.0213 48.1212 69.4288 48.0813 70.0269C48.073 70.1504 48.1586 70.2898 48.2253 70.4075C48.4519 70.8072 48.3464 71.2431 48.3792 71.6646C48.3911 71.8169 48.4542 71.965 48.5016 72.1439C48.0002 72.3322 47.7971 72.8798 47.5775 73.3672C47.4398 73.6729 47.2848 73.7788 46.9947 73.7784C46.901 73.7783 46.8073 73.7887 46.6927 73.7956C46.672 73.9076 46.6531 74.0104 46.6265 74.1548C46.439 74.1646 46.2432 74.1748 46.0866 74.183C45.9771 74.4399 45.8842 74.6724 45.7796 74.8992C45.6855 75.1031 45.2391 75.1843 45.062 75.0688C44.9859 75.0192 44.8419 75.0311 44.7489 75.0679C44.6473 75.1082 44.569 75.2095 44.4744 75.2894C44.6896 75.7076 44.548 76.1161 44.0738 76.2912C43.8533 76.3725 43.612 76.3937 43.3824 76.4516C43.1573 76.5082 42.935 76.5767 42.713 76.6396C42.6224 76.3577 42.6224 76.3577 41.8597 76.2725C41.7527 76.0515 41.647 75.8333 41.5188 75.5685C41.0345 75.7295 40.9329 75.2828 40.8134 74.9609C40.6703 74.5756 40.4433 74.465 40.0712 74.472C39.9021 74.4752 39.7286 74.3752 39.5613 74.3107C39.0004 74.0945 38.4535 74.0278 37.9274 74.4153C37.8657 74.4608 37.7331 74.4867 37.6797 74.4506C37.3953 74.258 37.141 74.2808 36.8481 74.4515C36.668 74.5564 36.3883 74.4148 36.237 74.6847C36.2179 74.7188 35.9857 74.7226 35.8208 74.5758C35.6655 74.4375 35.2401 74.4136 35.0714 74.5362C34.7879 74.7422 34.5134 74.8126 34.1888 74.8659C33.9691 74.9019 33.7361 75.0441 33.573 75.2058C33.2776 75.4984 32.7793 75.5597 32.656 76.0576C32.6329 76.1509 32.4637 76.2165 32.3519 76.275C32.1658 76.3724 32.0827 76.5093 32.0191 76.7223C31.9767 76.8642 31.7331 76.9435 31.5227 77.0906ZM35.8708 72.1253C36.046 72.214 36.195 72.3598 36.3226 72.3425C37.0042 72.25 37.8271 72.7299 38.3264 71.8587C38.3367 71.8407 38.3639 71.8295 38.3854 71.8218C38.8205 71.6665 39.1965 71.4235 39.4999 71.0651C39.5912 70.9572 39.6978 70.8611 39.8058 70.77C40.0109 70.5974 40.2209 70.4308 40.431 70.2646C40.6233 70.1124 40.8184 69.964 41.0668 69.7717C41.0689 69.7573 41.0835 69.654 41.097 69.5586C41.2214 69.5349 41.3222 69.5157 41.3469 69.511C41.7027 69.0898 41.4147 68.7158 41.4099 68.4209C41.2343 68.281 41.0289 68.2016 41.0032 68.0822C40.8921 67.5642 40.2313 67.4549 40.1927 66.9021C39.8658 66.8098 39.8546 66.2873 39.4261 66.3202C39.3712 66.3244 39.293 66.232 39.252 66.167C39.081 65.8966 38.7997 65.8231 38.5323 65.8272C38.1359 65.8334 37.7401 65.9608 37.345 65.9563C36.817 65.9503 36.4359 66.1238 36.2199 66.6057C36.3478 66.758 36.5399 66.882 36.5636 67.0334C36.6539 67.6095 36.5628 68.1563 36.1669 68.6213C36.0428 68.7672 35.9047 68.9389 35.8703 69.1181C35.7956 69.507 35.5389 69.6396 35.3069 69.6999C35.1496 69.9102 35.0482 70.0682 34.925 70.2061C34.5645 70.6096 34.206 71.0097 34.2989 71.5969C34.8343 71.6564 35.3348 71.712 35.8274 71.7667C35.8508 71.96 35.8635 72.0645 35.8708 72.1253ZM31.2825 68.6447C31.2974 68.6379 31.425 68.6164 31.4932 68.5399C31.6158 68.4022 31.7191 68.2394 31.7973 68.0712C31.8326 67.9953 31.8234 67.853 31.7741 67.7892C31.5768 67.5337 31.3556 67.3866 31.1044 67.7464C31.0763 67.7867 30.9709 67.7662 30.9039 67.784C30.8101 67.8089 30.7167 67.8382 30.6267 67.8745C30.1856 68.0527 29.8437 68.3529 29.6113 68.7113C29.7306 68.8765 29.8924 69.0077 29.929 69.1684C30.0463 69.6839 30.0739 69.722 30.5602 69.6575C30.7892 69.3363 31.0042 69.0349 31.2825 68.6447ZM20.4888 68.9986C20.5638 68.905 20.6387 68.8117 20.7116 68.7207C20.6256 68.629 20.5562 68.5549 20.4815 68.4752C20.3808 68.5609 20.283 68.6442 20.1775 68.734C20.2902 68.8298 20.3834 68.909 20.4888 68.9986Z" fill="white"/>
<path d="M19.1821 16.916C19.3404 16.7928 19.5244 16.6474 19.184 16.4504C19.144 16.4272 19.1443 16.3229 19.1357 16.2549C19.1266 16.1831 19.1589 16.0733 19.1224 16.0425C18.6051 15.6068 18.9176 15.0152 18.8343 14.5002C18.8212 14.4187 18.8251 14.3343 18.8202 14.231C18.706 14.2123 18.606 14.1959 18.488 14.1765C18.488 12.3759 18.488 10.5851 18.488 8.77007C18.582 8.74706 18.6809 8.72285 18.7801 8.69866C18.7933 8.67903 18.8153 8.66058 18.818 8.63959C18.8753 8.1874 18.8512 7.70393 19.007 7.29076C19.1822 6.82636 19.0716 6.37383 19.1413 5.92415C19.1793 5.67961 19.2854 5.44507 19.3692 5.20913C19.4558 4.96514 19.613 4.72875 19.6282 4.48192C19.6441 4.22427 19.8053 4.11274 19.9129 3.9337C20.1154 3.59698 20.2916 3.2254 20.3834 2.84448C20.4456 2.58653 20.412 2.31294 20.6334 2.11029C20.6763 2.07099 20.6934 1.9899 20.7011 1.92545C20.7248 1.72611 20.6468 1.52343 20.8846 1.35743C20.9796 1.29118 20.9176 0.991753 20.9282 0.777627C21.4409 0.729805 21.1169 0.297112 21.2752 0C21.4935 0 21.7498 0 22.0061 0C22.2539 0 22.5017 0 22.7836 0C22.7051 0.386442 22.9336 0.595962 23.1485 0.807551C23.4253 1.0802 23.711 1.34353 23.9904 1.61356C24.0201 1.64232 24.0315 1.69014 24.0542 1.72735C24.1184 1.83273 24.1841 1.9372 24.2939 2.1139C24.6021 2.65396 24.9512 3.26534 25.2915 3.86152C25.7494 4.0797 26.1151 4.38228 26.2914 4.88502C26.3029 4.91809 26.3144 4.95468 26.3366 4.97992C26.5923 5.27083 26.8758 5.54086 27.0988 5.85551C27.2704 6.0976 27.3675 6.39474 27.496 6.66816C27.5923 6.87277 27.6864 7.07838 27.7804 7.28406C27.8079 7.34424 27.8499 7.405 27.854 7.4676C27.8806 7.86899 27.9183 8.26164 28.1985 8.58545C28.2418 8.63545 28.2118 8.7493 28.2199 8.83322C28.2545 9.19322 28.2005 9.54422 28.3431 9.91676C28.4831 10.2824 28.272 10.6736 28.0715 11.0313C27.9416 11.2631 27.8953 11.5575 27.8656 11.83C27.8317 12.1415 27.7979 12.475 27.8703 12.7721C28.0163 13.3707 28.0035 13.971 28.0202 14.5751C28.0229 14.6744 28.1754 14.7609 28.2119 14.8696C28.2904 15.1037 28.366 15.3075 28.2478 15.601C28.1264 15.9023 28.2257 16.2935 28.217 16.6451C28.2132 16.7995 28.2914 16.9962 28.0508 17.0655C28.0238 17.0733 28.0223 17.1739 28.0097 17.2316C27.9587 17.4653 27.9591 17.7297 27.8459 17.9263C27.6366 18.2898 27.7237 18.6661 27.7121 19.0373C27.6959 19.5535 27.7023 19.5617 27.3216 19.6892C27.1725 19.9659 27.0393 20.1588 26.9613 20.3727C26.8792 20.5976 26.8961 20.8694 26.7837 21.0709C26.6822 21.2528 26.4092 21.3029 26.4271 21.6115C26.4374 21.7897 26.3186 21.9767 26.2515 22.1572C26.241 22.1855 26.1769 22.1949 26.1695 22.2221C26.0849 22.5311 26.0119 22.8435 25.9248 23.1518C25.848 23.4235 25.7563 23.6909 25.6732 23.9608C25.6527 24.0276 25.6214 24.0987 25.6273 24.1648C25.6712 24.655 25.5019 25.0502 25.1535 25.3857C25.0956 25.4414 25.0652 25.6251 25.1072 25.6748C25.4834 26.119 25.1492 26.4524 24.9648 26.8155C24.9192 26.9053 24.895 27.0163 24.8935 27.1181C24.8863 27.6153 24.8652 28.1145 24.8997 28.6094C24.9189 28.8856 24.9703 29.2081 25.1283 29.4125C25.3067 29.6432 25.2775 29.7482 25.0394 29.883C25.2363 30.0466 25.3436 30.163 25.1258 30.3838C25.0267 30.4842 25.1203 30.7602 25.0731 30.9422C25.0336 31.0942 24.9467 31.3022 24.8277 31.3508C24.4946 31.487 24.1341 31.5534 23.7293 31.6622C23.6682 31.8614 23.5855 32.033 23.2554 31.7937C23.0851 31.6703 22.7736 31.7493 22.5484 31.7379C22.3827 31.3153 22.0861 31.0572 21.719 30.859C21.4392 30.7079 21.1715 30.5339 20.8968 30.3731C20.8488 30.345 20.7939 30.3188 20.7401 30.3133C20.3418 30.2729 19.9431 30.238 19.5676 30.2035C19.3749 29.5619 19.0639 29.1061 18.6399 28.9208C18.4297 28.6022 18.2878 28.3867 18.1454 28.1716C18.1268 28.1434 18.092 28.1186 18.0881 28.0891C18.0319 27.6589 17.9362 27.2278 17.9404 26.7978C17.9437 26.4691 18.0746 26.1418 18.1565 25.7797C18.2098 25.7691 18.312 25.7486 18.4319 25.7246C18.4529 25.6209 18.4739 25.5176 18.4985 25.3962C18.5955 25.3746 18.6964 25.3521 18.8329 25.3216C18.8329 25.0952 18.8073 24.8635 18.8393 24.6404C18.8798 24.3572 18.9105 24.0468 19.0483 23.8105C19.2266 23.5049 19.1341 23.4084 18.8641 23.3606C18.785 23.0881 18.8458 22.8886 19.0457 22.7091C19.1138 22.6479 19.1299 22.5002 19.1306 22.3918C19.1367 21.385 19.1322 20.3782 19.1362 19.3713C19.1368 19.2177 19.0676 19.0283 19.3009 18.9554C19.3328 18.9455 19.3433 18.8257 19.3438 18.7565C19.3474 18.2592 19.3556 17.7615 19.3387 17.2647C19.3348 17.1502 19.2398 17.0387 19.1821 16.916Z" fill="white"/>
<path d="M11.083 66.5552C10.9705 66.7769 10.8663 66.9672 10.7766 67.1645C10.7167 67.2966 10.6608 67.435 10.6325 67.5767C10.5693 67.8927 10.5883 68.245 10.4529 68.521C10.3353 68.7605 10.0515 68.9154 9.84112 69.1077C9.80996 69.088 9.77877 69.0683 9.74761 69.0486C9.74761 69.1913 9.76672 69.3375 9.74263 69.4758C9.71453 69.6373 9.62684 69.7887 9.60429 69.9502C9.56953 70.1993 9.4636 70.4728 9.74639 70.6838C9.57854 70.8642 9.41262 71.0426 9.2709 71.195C9.41936 71.4245 9.59146 71.6648 9.73207 71.9228C9.77744 72.0062 9.78584 72.1815 9.73272 72.2374C9.46958 72.5142 9.64947 72.8599 9.56433 73.152C9.26784 74.1691 9.51888 75.2078 9.40439 76.2267C9.37393 76.4978 9.2706 76.7986 9.16867 77.0449C8.98945 77.478 8.8771 77.8966 8.9126 78.3791C8.79464 78.4017 8.69499 78.4208 8.56326 78.4461C8.56326 78.6402 8.56326 78.8412 8.56326 79.0567C8.42903 79.0955 8.32061 79.127 8.17491 79.1691C8.11713 79.5802 8.14618 80.0449 7.97563 80.4137C7.77115 80.8559 7.94081 81.2899 7.8185 81.7438C7.68661 81.7561 7.53849 81.77 7.36315 81.7863C7.35597 81.8879 7.34883 81.9888 7.34016 82.1113C7.51123 82.1262 7.66013 82.1392 7.83277 82.1543C7.83924 82.2832 7.83962 82.4016 7.85207 82.5185C7.90175 82.9849 7.87611 83.4812 8.03389 83.9066C8.14683 84.2111 8.16481 84.4912 8.18503 84.7914C8.18869 84.8459 8.20867 84.9321 8.24345 84.9462C8.53876 85.0654 8.58911 85.3041 8.53748 85.6034C8.6608 85.629 8.76067 85.6497 8.86465 85.6712C8.87941 85.7061 8.90282 85.7374 8.90499 85.7702C8.95781 86.5629 9.01125 87.3556 9.05768 88.1487C9.07286 88.4082 8.95423 88.6655 9.05759 88.9297C9.31833 89.5961 9.03761 90.3416 9.23995 90.9712C9.59425 92.0736 9.29597 93.1703 9.42534 94.2583C9.44938 94.4606 9.47708 94.7141 9.60313 94.8402C9.79623 95.0334 9.74341 95.2347 9.74469 95.4379C9.75121 96.4813 9.74804 97.5248 9.74666 98.5682C9.7465 98.6852 9.73632 98.8022 9.65334 98.9669C9.42475 98.7116 9.19612 98.4563 8.91912 98.147C8.91419 98.0756 8.90361 97.922 8.89186 97.7514C8.77951 97.7322 8.67845 97.715 8.55898 97.6947C8.5508 97.5437 8.54312 97.4016 8.53391 97.2315C7.70921 97.264 7.63419 96.5208 7.24379 95.996C7.08111 95.9151 6.84285 95.8096 6.61904 95.6784C6.54026 95.6322 6.45471 95.5284 6.44475 95.4422C6.4032 95.0829 6.40141 94.729 6.31686 94.3632C6.24285 94.043 6.47388 93.6498 6.56893 93.2886C6.58688 93.2204 6.60196 93.1511 6.61317 93.0815C6.6554 92.8191 6.54362 92.5551 6.78673 92.289C6.89209 92.1737 6.95726 91.7537 6.67982 91.4828C6.57056 91.376 6.55513 91.0071 6.65156 90.8724C7.07193 90.2852 6.95893 89.6287 6.97068 88.9861C6.97169 88.9309 6.91467 88.8535 6.86353 88.822C6.61996 88.6718 6.66742 88.4182 6.59644 88.1932C6.40211 87.5771 6.5162 86.942 6.39924 86.3391C6.35487 86.1105 6.41616 85.7353 6.09314 85.5716C6.05521 85.5523 6.06274 85.4107 6.07229 85.3287C6.11228 84.9851 5.96609 84.7011 5.81481 84.4141C5.77832 84.3449 5.77312 84.2536 5.7703 84.1718C5.76402 83.9901 5.75528 83.8068 5.77082 83.6262C5.81903 83.0656 5.87813 82.506 5.93095 81.9667C6.08913 82.0263 6.29743 82.1563 6.34307 82.1121C6.46955 81.9896 6.54348 81.8004 6.60903 81.6261C6.66344 81.4815 6.67644 81.3207 6.74555 81.1731C6.64165 80.8997 6.39713 80.8599 6.10789 80.864C5.99733 80.8656 5.88495 80.7329 5.85601 80.7143C5.88011 80.3954 5.9166 80.1488 5.91262 79.9028C5.90813 79.6245 5.94966 79.392 6.22476 79.2578C6.52873 79.1095 6.53834 78.2042 6.21808 78.0607C5.95624 77.9434 6.03789 77.7109 6.1076 77.5779C6.31941 77.1741 6.30035 77.0876 5.85379 76.9641C5.83281 76.9583 5.81405 76.9442 5.74329 76.9077C5.79949 76.6559 5.86273 76.3929 5.91609 76.1279C5.97069 75.8566 5.91492 75.5935 6.03112 75.2991C6.26989 74.6943 6.56793 74.0817 6.45247 73.3722C6.42112 73.1797 6.58599 72.9522 6.66691 72.7431C6.71241 72.6256 6.80313 72.5172 6.81724 72.3977C6.88221 71.8485 6.91952 71.2959 6.9833 70.7464C7.01102 70.5076 7.03555 70.2509 7.14086 70.0443C7.23515 69.8593 7.43844 69.7319 7.62014 69.553C7.47856 69.5436 7.33364 69.5339 7.18856 69.524C7.07256 69.1263 7.1378 69.0795 7.94552 68.9821C7.99899 68.7808 8.05306 68.577 8.10715 68.3733C8.12528 68.3773 8.14342 68.3813 8.16156 68.3853C8.15877 68.3734 8.15831 68.3604 8.15287 68.3501C7.98169 68.0245 7.78975 67.7079 7.65071 67.3687C7.6088 67.2665 7.71365 67.1019 7.77164 66.8922C7.6702 66.8059 7.45008 66.6568 7.81038 66.4451C7.88269 66.4027 7.84928 66.1735 7.86729 66.0058C7.95489 65.9829 8.05243 65.9574 8.18089 65.9238C8.18089 65.4192 8.18089 64.9137 8.18089 64.4042C8.31785 64.3738 8.42462 64.3501 8.53139 64.3264C8.5331 64.3059 8.53478 64.2853 8.53646 64.2648C8.4325 64.2401 8.32854 64.2154 8.183 64.1809C8.183 63.7219 8.181 63.2517 8.18587 62.7817C8.18641 62.7303 8.21432 62.6478 8.25052 62.633C8.57544 62.5001 8.55113 62.2227 8.54758 61.9444C8.54168 61.484 8.54598 61.0236 8.54598 60.5412C8.66372 60.5131 8.77179 60.4872 8.9002 60.4565C8.9002 60.0744 8.9002 59.7013 8.9002 59.3283C8.9378 59.3395 8.97543 59.3508 9.01303 59.3621C9.07755 59.2228 9.1752 59.0891 9.19856 58.943C9.23069 58.7421 9.21277 58.5315 9.20479 58.3256C9.19794 58.1498 9.21716 58.0173 9.39832 57.9138C9.49118 57.8608 9.5071 57.6777 9.57156 57.5614C9.75373 57.2323 9.7654 56.8757 9.75608 56.5126C9.75505 56.4727 9.78746 56.4103 9.82087 56.3944C10.0993 56.2624 10.1484 56.0191 10.119 55.7258C10.2378 55.7091 10.3393 55.6948 10.4198 55.6835C10.6256 55.1537 10.8227 54.6461 11.0292 54.1145C11.3097 54.1179 11.6061 54.106 11.7271 53.6953C11.9165 54.0106 12.3757 54.0966 12.1618 54.5845C12.3091 54.6124 12.409 54.6313 12.5066 54.6498C12.5514 54.7716 12.5629 54.9222 12.6428 54.999C13.0152 55.3574 13.2144 55.8128 13.4144 56.2777C13.4834 56.4381 13.6315 56.5783 13.773 56.6883C14.0734 56.9218 14.217 57.2042 14.1056 57.6163C14.4369 57.6269 14.4503 57.8345 14.4316 58.0789C14.416 58.2839 14.3436 58.5878 14.4445 58.6801C14.8105 59.0152 14.4833 59.5058 14.756 59.8515C14.8037 59.912 14.7184 60.1779 14.6254 60.2381C14.3954 60.3871 14.4345 60.5911 14.4274 60.7987C14.4207 60.9958 14.5162 61.2657 14.1256 61.1741C14.1256 61.4391 14.1256 61.6545 14.1256 61.8805C14.0005 61.9035 13.8991 61.9221 13.7823 61.9435C13.7766 62.2378 13.7695 62.512 13.444 62.658C13.3459 62.7021 13.3339 62.9213 13.2558 63.0426C13.1744 63.1691 13.061 63.2742 12.9616 63.3886C12.9336 63.3719 12.9056 63.3552 12.8776 63.3385C12.8716 63.4558 12.8672 63.5732 12.8594 63.6903C12.8482 63.8573 12.9299 64.083 12.6318 64.0736C12.5368 64.4433 11.9073 64.4353 12.0244 64.9773C12.0413 65.0559 11.8472 65.1888 11.7418 65.2865C11.4562 65.5511 11.2035 65.8184 11.2779 66.2714C11.2926 66.3606 11.1387 66.4786 11.083 66.5552ZM8.95946 68.6161C8.74451 68.3186 8.74451 68.3186 8.56946 68.3509C8.53705 68.66 8.50481 68.9675 8.47257 69.275C8.46669 69.4906 8.05246 69.522 8.20425 69.8152C8.32792 70.0542 8.59748 70.1232 8.88485 70.0165C8.90753 69.5907 8.93036 69.1625 8.95946 68.6161ZM8.17715 70.7766C8.17631 70.8164 8.17548 70.8562 8.17464 70.896C8.42443 70.9841 8.50749 71.3827 8.89151 71.2538C8.89151 71.0508 8.89151 70.8509 8.89151 70.5563C8.62593 70.6382 8.40153 70.7074 8.17715 70.7766Z" fill="white"/>
<path d="M34.2866 59.4502C33.9717 59.7423 33.738 60.0136 33.6104 60.3796C33.5323 60.6038 33.4116 60.8126 33.3093 61.028C33.2854 61.0782 33.2452 61.1241 33.2349 61.1765C33.1769 61.4713 33.1258 61.7675 33.0719 62.0656C32.9483 62.0853 32.8563 62.1 32.8484 62.1013C32.686 62.3221 32.5256 62.4737 32.446 62.661C32.2036 63.2311 31.8381 63.5892 31.0749 63.5128C31.1951 63.7178 31.2717 63.8484 31.3625 64.0033C30.9031 64.0654 30.4498 64.1267 30.0682 64.1783C29.9011 63.9849 29.7576 63.8217 29.6177 63.6553C29.5509 63.5759 29.466 63.4998 29.4323 63.4061C29.2695 62.9548 28.9653 62.8516 28.5315 63.0754C28.3233 63.1829 28.0495 63.1769 27.8646 63.3085C27.6333 63.4733 27.4095 63.5289 27.1411 63.519C27.072 63.5165 27.0016 63.6197 26.9275 63.6675C26.7966 63.7521 26.6623 63.8315 26.4577 63.9571C26.4539 63.9744 26.4291 64.0862 26.4068 64.1872C26.2521 64.1264 26.1079 64.0697 25.94 64.0036C25.9086 63.8516 25.9742 63.5829 25.6022 63.7003C25.7095 63.2195 25.4917 62.9005 25.2914 62.5714C25.2522 62.5069 25.2605 62.4077 25.2598 62.3244C25.2566 61.9605 25.2791 61.5949 25.2535 61.2328C25.2104 60.6244 25.1465 60.0171 25.0708 59.4119C25.0541 59.2786 24.9757 59.1333 24.884 59.0333C24.6223 58.7484 24.7528 58.4056 24.7112 58.088C24.6974 57.9825 24.6568 57.8361 24.5812 57.7918C24.3475 57.6547 24.3541 57.4518 24.3458 57.2248C24.3413 57.1 24.286 56.9497 24.2026 56.8605C23.9599 56.6009 23.6914 56.3663 23.4331 56.1219C23.3813 56.1333 23.3296 56.1447 23.2778 56.156C23.3468 55.996 23.4208 55.8379 23.4827 55.6751C23.5116 55.5991 23.5396 55.511 23.5301 55.4333C23.4492 54.7766 24.2931 54.2174 24.9399 54.5688C25.2941 54.7612 25.6532 55.0642 26.1276 55.0108C26.2621 54.9956 26.4089 55.1319 26.5556 55.1818C26.7902 55.2616 27.0294 55.3273 27.3232 55.416C27.3283 55.4426 27.3475 55.544 27.3618 55.619C27.5068 55.701 27.6762 55.7457 27.7645 55.8572C27.9552 56.0978 28.0918 56.1914 28.2932 55.8662C28.3513 55.7724 28.5234 55.7138 28.6468 55.7073C29.0269 55.6872 29.4097 55.6833 29.7893 55.7079C29.9494 55.7182 30.173 55.7693 30.2465 55.8831C30.3825 56.0938 30.5496 56.0512 30.7296 56.0712C31.0801 56.1102 31.4274 56.1795 31.778 56.2167C32.0206 56.2425 32.0797 56.018 32.2218 55.8823C32.5818 55.5384 32.2601 55.0598 32.5351 54.7069C32.6056 54.6165 32.4382 54.3336 32.3912 54.1764C32.0829 54.0968 31.7427 54.0983 31.5247 53.9327C31.1525 53.6498 30.7609 53.7212 30.3806 53.7485C30.0802 53.7701 29.789 53.9246 29.4526 54.0334C29.3623 53.8596 28.9958 53.7659 29.0712 53.4005C29.098 53.2706 29.2241 53.1651 29.2717 53.0358C29.3839 52.7307 29.4724 52.4165 29.5803 52.1096C29.5992 52.0558 29.6742 52.0254 29.709 51.974C29.7902 51.8539 29.8531 51.7199 29.9407 51.6053C30.173 51.3013 30.3786 50.9606 30.8163 50.8542C30.7737 50.5178 31.0861 50.504 31.2968 50.3861C31.325 50.3704 31.386 50.3954 31.4 50.3768C31.6083 50.0993 31.9316 50.0321 32.2213 49.9045C32.4038 49.8242 32.5888 49.7497 32.7733 49.6741C32.8162 49.6565 32.892 49.6566 32.9015 49.6298C33.0582 49.1864 33.4281 49.3133 33.7393 49.3073C34.093 49.3003 34.4096 49.2667 34.6936 48.9852C34.8358 48.8443 35.1119 48.8317 35.3327 48.7886C35.5887 48.7386 35.7308 48.8672 35.8877 49.0909C36.0033 49.2558 36.2973 49.2908 36.4296 49.3481C36.6795 49.6972 36.8764 50.0232 37.1247 50.3016C37.3043 50.5032 37.3356 50.6492 37.1222 50.8291C37.2777 50.9818 37.3454 51.1125 37.1699 51.3154C37.0881 51.41 37.0936 51.6207 37.1204 51.7672C37.1855 52.1231 37.0324 52.4176 36.8245 52.6373C36.5992 52.8753 36.5698 53.1224 36.5774 53.4117C36.5841 53.6663 36.594 53.9224 36.575 54.1757C36.5507 54.4986 36.6987 54.7537 36.8375 55.0194C36.8787 55.0983 36.9023 55.1967 36.9026 55.2862C36.9046 55.7793 36.9871 56.2864 36.7042 56.6498C36.4311 56.8341 36.203 56.9819 35.9813 57.1393C35.7509 57.3028 35.4883 57.4418 35.31 57.653C35.1013 57.9004 34.9322 58.2001 34.8172 58.505C34.7568 58.6652 34.7119 58.715 34.5555 58.7639C34.1767 58.8821 34.3198 59.2447 34.2866 59.4502ZM28.4233 58.0231C28.1934 58.1957 27.9379 58.3874 27.7867 58.5009C27.8274 58.9948 27.8587 59.3734 27.8912 59.7664C28.0454 59.7664 28.1942 59.7664 28.3395 59.7664C28.3655 59.6439 28.3874 59.5408 28.4083 59.4425C28.5268 59.4231 28.6288 59.4065 28.705 59.394C28.8242 58.8818 29.1679 58.3471 28.4233 58.0231Z" fill="white"/>
<path d="M48.279 18.3251C48.3907 18.2684 48.485 18.2014 48.5896 18.1722C48.7379 18.1309 48.9212 18.0533 49.0403 18.1063C49.2574 18.2027 49.4388 18.3831 49.6336 18.5305C49.651 18.5436 49.654 18.575 49.6695 18.5926C49.8133 18.7566 49.8681 19.7165 49.8461 19.9215C49.8202 20.1614 49.6558 20.3651 49.7398 20.6516C49.7897 20.8216 49.5933 21.062 49.5198 21.2751C49.4318 21.5305 49.3621 21.7924 49.2745 22.0479C49.2118 22.2308 49.1327 22.4078 49.0448 22.6279C48.8587 22.4549 48.988 22.0734 48.615 22.23C48.598 22.3167 48.5778 22.4193 48.5582 22.5188C48.2058 22.7015 48.1907 22.2782 47.9597 22.1962C47.8233 22.3187 47.6733 22.45 47.4836 22.2218C47.4361 22.1648 47.2542 22.1575 47.1772 22.203C46.7119 22.478 46.2101 22.2981 45.7286 22.3496C45.6696 22.3559 45.5788 22.3312 45.5552 22.3622C45.2129 22.8127 45.0646 22.4 44.9504 22.2766C44.7451 22.246 44.6322 22.224 44.5183 22.2137C44.4007 22.2031 44.2423 22.1519 44.1709 22.2087C43.8828 22.4379 43.5596 22.3146 43.254 22.3503C43.094 22.369 42.9524 22.3305 42.7939 22.501C42.6964 22.6059 42.2989 22.561 42.1482 22.4394C41.9627 22.2896 41.8155 22.1702 41.5729 22.1908C41.3004 22.214 41.0773 22.189 40.8947 21.8932C40.791 21.7253 40.4842 21.6876 40.2455 21.5807C40.2908 21.5268 40.3433 21.4643 40.4386 21.3511C40.337 21.2889 40.231 21.2241 40.0976 21.1425C40.0804 21.1567 40.0207 21.2059 39.948 21.2658C39.8787 21.2009 39.8065 21.1332 39.7492 21.0796C40.0433 20.4338 39.6951 19.9203 39.4578 19.377C39.3128 19.3702 39.1731 19.3636 39.0455 19.3575C39.0238 19.3159 39.0002 19.2922 39.0043 19.2754C39.1421 18.704 38.6795 18.4522 38.4194 18.0832C38.332 17.9593 38.3073 17.6329 38.3807 17.5794C38.5529 17.4537 38.6485 17.0905 39.027 17.335C39.2297 17.466 39.4219 17.5839 39.6017 17.7552C39.9779 18.1136 40.43 17.8844 40.4355 17.3993C40.7521 17.3993 41.0705 17.4117 41.3875 17.3957C41.6714 17.3813 41.9686 17.4818 42.2363 17.2615C42.3094 17.2013 42.5094 17.2273 42.6081 17.2874C42.8856 17.4562 43.1209 17.4298 43.4097 17.2917C43.5976 17.2019 43.8512 17.2524 44.0755 17.2449C44.2377 17.2395 44.3675 17.2481 44.4801 17.0538C44.636 16.7848 45.4971 16.772 45.6879 17.0295C46.0013 17.4526 46.388 17.6285 46.9023 17.5591C46.992 17.547 47.0917 17.6516 47.1929 17.6787C47.3444 17.7192 47.5008 17.7596 47.6561 17.7636C48.1177 17.7752 48.1685 17.8089 48.279 18.3251Z" fill="white"/>
<path d="M3.5575 23.9603C3.61665 23.9496 3.71757 23.9315 3.82795 23.9116C3.57953 23.5415 3.61143 23.0941 4.15411 23.0519C4.21944 22.5855 4.21941 22.099 4.36915 21.6663C4.49539 21.3014 4.46276 20.9489 4.51528 20.5933C4.54073 20.4209 4.68608 20.2669 4.79667 20.0696C5.12728 19.9984 5.36465 19.7681 5.4339 19.4277C6.00222 19.2808 6.53465 19.0522 7.07617 19.0271C7.71621 18.9974 8.38633 18.8239 9.01449 19.1443C9.06165 19.1683 9.12527 19.1589 9.2439 19.172C9.14717 19.6096 9.02217 20.015 8.98027 20.4291C8.95782 20.6508 9.07784 20.8877 9.13496 21.1174C9.15656 21.2043 9.23033 21.3253 9.19828 21.3709C8.93392 21.7462 9.20285 21.9673 9.38673 22.244C9.5 22.4144 9.54142 22.651 9.56495 22.8636C9.63855 23.5291 9.67981 24.1983 9.75402 24.8636C9.77007 25.0076 9.86466 25.1455 9.93573 25.2792C9.98337 25.3689 10.1041 25.4455 10.1054 25.5294C10.1184 26.3514 10.1132 27.1738 10.1132 28.0059C9.9778 28.0264 9.87544 28.0418 9.77692 28.0566C9.71344 28.4567 9.40073 28.691 8.936 28.7163C8.78806 28.7244 8.6185 28.6444 8.50818 28.868C8.47369 28.9379 8.13388 28.962 8.09189 28.8986C7.90082 28.6098 7.61708 28.7659 7.36087 28.6833C7.34841 28.5409 7.33515 28.3891 7.32001 28.2157C7.21568 28.198 7.11516 28.1809 6.99193 28.1599C6.98686 28.0765 6.97839 27.9949 6.97755 27.9132C6.9749 27.6537 6.83144 27.5636 6.59572 27.5048C6.30275 27.4318 6.02715 27.2888 5.74041 27.1866C5.5822 27.1302 5.38094 27.1395 5.26299 27.0403C5.10981 26.9115 5.0254 26.7003 4.90147 26.5321C4.81476 26.4145 4.71142 26.3095 4.66104 26.2514C4.48615 26.0983 4.32968 26.021 4.2754 25.8972C4.21944 25.7696 4.26297 25.5967 4.33609 25.4368C4.26633 25.3618 4.19659 25.2868 4.12756 25.2126C3.8351 25.3895 3.43567 25.2385 3.3338 24.9132C3.32007 24.8694 3.32173 24.8144 3.33364 24.7694C3.40056 24.5161 3.47271 24.2644 3.5575 23.9603Z" fill="white"/>
<path d="M0.834008 69.6092C1.04877 69.4775 1.20219 69.3635 0.945058 69.1573C0.89243 69.1151 0.860268 69.0244 0.850847 68.9518C0.764623 68.288 1.00692 67.7873 1.53507 67.3826C1.81776 67.1659 2.02659 66.85 2.27295 66.583C2.35638 66.4925 2.46218 66.4225 2.54061 66.3284C2.63044 66.2206 2.70036 66.0958 2.78047 65.9794C2.83662 65.8978 2.89609 65.8186 2.9527 65.7373C3.08021 65.5543 3.19159 65.3567 3.33748 65.1905C3.54786 64.9508 3.72104 64.6658 4.06491 64.5739C4.19559 64.5389 4.30444 64.4193 4.50367 64.2834C4.50367 64.5633 4.50318 64.7186 4.50377 64.8739C4.50475 65.1272 4.52213 65.3421 4.7007 65.5801C4.89662 65.8413 4.94936 66.2194 5.04332 66.5527C5.1152 66.8077 4.89946 67.137 5.23681 67.3268C5.2504 67.3345 5.24996 67.3713 5.25278 67.395C5.30511 67.8357 5.37295 68.2753 5.40352 68.7176C5.42588 69.0411 5.44848 69.3434 5.73239 69.5605C5.77836 69.5957 5.76775 69.7194 5.7684 69.8023C5.7717 70.2146 5.75075 70.6281 5.77592 71.0387C5.79782 71.3956 5.89111 71.7479 5.91426 72.1049C5.94017 72.5049 5.57461 72.6686 5.33578 72.8446C5.17113 72.966 4.83184 72.9755 4.63299 72.7336C4.55129 72.6342 4.4989 72.5098 4.44089 72.41C4.32247 72.4786 4.1834 72.5592 4.04433 72.6397C4.01266 72.6269 3.98098 72.6141 3.94934 72.6014C3.91228 72.9413 3.94501 73.3113 3.81991 73.6134C3.67409 73.9655 3.82421 74.3863 3.66042 74.6366C3.41285 75.0149 3.61692 75.4603 3.35627 75.7997C3.31301 75.8561 3.32595 75.9627 3.32503 76.0462C3.32178 76.3493 3.27854 76.6614 3.33431 76.9535C3.41637 77.3832 3.15363 77.6124 2.90665 77.8432C2.82647 77.9181 2.60399 77.93 2.50904 77.8693C2.39407 77.7958 2.27904 77.6139 2.28066 77.4804C2.28513 77.1122 2.11152 76.963 1.7876 76.9478C1.6841 76.3372 0.957106 75.4054 0.607414 75.4018C0.554515 75.5238 0.504188 75.6398 0.466206 75.7274C0.313627 75.4393 0.148406 75.2055 0.0650779 74.9446C0.00186441 74.7466 -0.037309 74.4671 0.0534098 74.3062C0.281899 73.9008 0.13885 73.4845 0.186172 73.0779C0.197298 72.9824 0.164703 72.8235 0.208885 72.7987C0.754254 72.4934 0.406295 71.7714 0.83834 71.4207C0.851145 71.4103 0.849033 71.3732 0.845054 71.3501C0.778917 70.9645 0.973809 70.6785 1.17793 70.3862C1.28733 70.2297 1.07836 69.7655 0.834008 69.6092Z" fill="white"/>
<path d="M14.4146 71.481C14.4242 71.6801 14.431 71.8221 14.4357 71.9192C14.6891 72.0338 14.9256 72.1139 15.1307 72.2451C15.2296 72.3084 15.2699 72.4673 15.3354 72.5837C15.3629 72.6324 15.3749 72.7103 15.4146 72.7286C15.7756 72.8947 15.6956 73.2195 15.6966 73.5146C15.6983 73.997 15.6971 74.4794 15.6971 74.8782C15.4274 75.023 15.2213 75.1424 15.0076 75.2451C14.8888 75.3022 14.7546 75.3737 14.6319 75.3658C14.2825 75.3433 14.013 75.4923 13.7379 75.6825C13.6366 75.7526 13.4308 75.7848 13.3379 75.7264C13.0484 75.5445 12.7713 75.3595 12.4148 75.3628C12.3956 75.3629 12.3743 75.3405 12.3572 75.3249C12.0651 75.0591 11.7823 74.7814 11.4777 74.5313C11.3435 74.421 11.1569 74.3797 11.0087 74.2836C10.7279 74.1013 10.4577 73.9021 10.1357 73.6767C10.1357 73.648 10.1357 73.5459 10.1357 73.467C10.2681 73.4056 10.4166 73.3847 10.4809 73.2986C10.7844 72.8924 11.2134 72.7879 11.6706 72.7262C11.7309 72.718 11.7889 72.6682 11.8413 72.6286C12.0899 72.4411 12.3323 72.2447 12.5862 72.0653C12.6458 72.0232 12.7453 72.0125 12.8204 72.025C13.3349 72.1105 13.743 71.8911 14.1284 71.5823C14.1953 71.5286 14.2974 71.5206 14.4146 71.481Z" fill="white"/>
</g>
<defs>
<clipPath id="clip0">
<rect width="54" height="99" fill="white"/>
</clipPath>
</defs>
</svg>
